<svg xmlns="http://www.w3.org/2000/svg" xmlns:xlink="http://www.w3.org/1999/xlink" width="375" height="812" viewBox="0 0 375 812">
  <defs>
    <clipPath id="clip-path">
      <path id="Tracé_11937" data-name="Tracé 11937" d="M0-13.6H315.293V-372.584H0Z" transform="translate(0 372.584)" fill="none"/>
    </clipPath>
    <clipPath id="clip-LOUPE_-_CATEGORIES_2">
      <rect width="375" height="812"/>
    </clipPath>
  </defs>
  <g id="LOUPE_-_CATEGORIES_2" data-name="LOUPE - CATEGORIES – 2" clip-path="url(#clip-LOUPE_-_CATEGORIES_2)">
    <rect width="375" height="812" fill="#fafafb"/>
    <rect id="Rectangle_547" data-name="Rectangle 547" width="375" height="812" fill="#521b53"/>
    <path id="Tracé_12127" data-name="Tracé 12127" d="M125.76-1979.157S-20.792-1867.3-119.617-1838.129s84.889,182.667,84.889,182.667,75.624,75.685,7.1,169-53.158,145.7-53.158,145.7H133.883Z" transform="translate(292 2160.531)" fill="#5d1d5b"/>
    <path id="Tracé_12128" data-name="Tracé 12128" d="M-36.868-2192.328c-176.82,31.226-231.758,174.953-243.923,297.386s76.4,221.619,76.4,221.619,89.567,138.3-6.526,333.658-75.816,0-75.816,0l-4.652-875.282S-41.378-2191.629-36.868-2192.328Z" transform="translate(284.129 2176.677)" fill="#5d1d5b"/>
    <g id="Groupe_1000" data-name="Groupe 1000" transform="translate(29.853 837.595)" opacity="0.202">
      <g id="Groupe_997" data-name="Groupe 997" transform="translate(0 -372.584)" clip-path="url(#clip-path)">
        <g id="Groupe_982" data-name="Groupe 982" transform="translate(306.789 65.019)">
          <path id="Tracé_11922" data-name="Tracé 11922" d="M-.132-.078C-.146-.219-.158-.357-.174-.5a1.7,1.7,0,0,0-3.405,0c-.013.14-.026.277-.04.418C-3.839,2.17.086,2.17-.132-.078" transform="translate(3.628 2.14)" fill="#fff"/>
        </g>
        <g id="Groupe_983" data-name="Groupe 983" transform="translate(226.481 57.819)">
          <path id="Tracé_11923" data-name="Tracé 11923" d="M-.2-.1c0-3.435-5.328-3.435-5.328,0S-.2,3.338-.2-.1" transform="translate(5.53 2.674)" fill="#fff"/>
        </g>
        <g id="Groupe_984" data-name="Groupe 984" transform="translate(279.898 17.604)">
          <path id="Tracé_11924" data-name="Tracé 11924" d="M-.144-.07a1.9,1.9,0,0,0-3.8,0,1.9,1.9,0,0,0,3.8,0" transform="translate(3.942 1.908)" fill="#fff"/>
        </g>
        <g id="Groupe_985" data-name="Groupe 985" transform="translate(265.235 261.646)">
          <path id="Tracé_11925" data-name="Tracé 11925" d="M-.178-.1c0-.138-.01-.276-.015-.418a2.337,2.337,0,0,0-4.672,0c-.006.143-.011.28-.015.418-.1,3.035,4.808,3.035,4.7,0" transform="translate(4.883 2.777)" fill="#fff"/>
        </g>
        <g id="Groupe_986" data-name="Groupe 986" transform="translate(178.289 320.473)">
          <path id="Tracé_11926" data-name="Tracé 11926" d="M-.017-.059a3.2,3.2,0,0,0,0,3.242,3.237,3.237,0,0,0,5.046.65,3.248,3.248,0,0,0,0-4.546A3.238,3.238,0,0,0-.017-.059" transform="translate(0.458 1.63)" fill="#fff"/>
        </g>
        <g id="Groupe_987" data-name="Groupe 987" transform="translate(231.29 254.893)">
          <path id="Tracé_11927" data-name="Tracé 11927" d="M-.28-.136c0-4.774-7.4-4.774-7.4,0s7.4,4.775,7.4,0" transform="translate(7.685 3.716)" fill="#fff"/>
        </g>
        <g id="Groupe_988" data-name="Groupe 988" transform="translate(237.213 355.2)">
          <path id="Tracé_11928" data-name="Tracé 11928" d="M-.148-.072c0-2.525-3.918-2.525-3.918,0s3.918,2.525,3.918,0" transform="translate(4.066 1.966)" fill="#fff"/>
        </g>
        <g id="Groupe_989" data-name="Groupe 989" transform="translate(308.475 230.103)">
          <path id="Tracé_11929" data-name="Tracé 11929" d="M-.258-.125c0-4.394-6.819-4.394-6.819,0s6.819,4.4,6.819,0" transform="translate(7.077 3.42)" fill="#fff"/>
        </g>
        <g id="Groupe_990" data-name="Groupe 990" transform="translate(11.678 116.343)">
          <path id="Tracé_11930" data-name="Tracé 11930" d="M-.266-.128c0-4.522-7.012-4.522-7.012,0s7.012,4.522,7.012,0" transform="translate(7.278 3.52)" fill="#fff"/>
        </g>
        <g id="Groupe_991" data-name="Groupe 991" transform="translate(17.471 168.022)">
          <path id="Tracé_11931" data-name="Tracé 11931" d="M-.08-.039a1.058,1.058,0,0,0-2.114,0,1.058,1.058,0,0,0,2.114,0" transform="translate(2.194 1.063)" fill="#fff"/>
        </g>
        <g id="Groupe_992" data-name="Groupe 992" transform="translate(0 193.597)">
          <path id="Tracé_11932" data-name="Tracé 11932" d="M-.249-.078a3.848,3.848,0,0,0-3.406-2.05C-6.061-2.4-7.339.641-6.3,2.477c.029.051.06.105.089.158q-.215-.795-.431-1.591c0,.056-.009.112-.013.168.148-.553.3-1.1.447-1.657a1.648,1.648,0,0,0-.2.367A3.606,3.606,0,0,0-3.327,5.283C-.394,5.283.806,2.309-.249-.078" transform="translate(6.811 2.146)" fill="#fff"/>
        </g>
        <g id="Groupe_993" data-name="Groupe 993" transform="translate(60.009 63.496)">
          <path id="Tracé_11933" data-name="Tracé 11933" d="M-.15-.072c0-2.552-3.957-2.552-3.957,0s3.957,2.55,3.957,0" transform="translate(4.107 1.987)" fill="#fff"/>
        </g>
        <g id="Groupe_994" data-name="Groupe 994" transform="translate(258.807 40.252)">
          <path id="Tracé_11934" data-name="Tracé 11934" d="M-.247-.19C-.424.3-.334.1.031-.811A3.5,3.5,0,0,0-.32-3.5,3.523,3.523,0,0,0-5.09-4.748,3.5,3.5,0,0,0-3,1.717Q-4.423.635-5.845-.447l.084.257a2.883,2.883,0,0,0,5.514,0" transform="translate(6.771 5.214)" fill="#fff"/>
        </g>
        <g id="Groupe_995" data-name="Groupe 995" transform="translate(159.434 0)">
          <path id="Tracé_11935" data-name="Tracé 11935" d="M-.279-.135c0-4.75-7.366-4.75-7.366,0s7.366,4.749,7.366,0" transform="translate(7.645 3.698)" fill="#fff"/>
        </g>
        <g id="Groupe_996" data-name="Groupe 996" transform="translate(148.01 292.676)">
          <path id="Tracé_11936" data-name="Tracé 11936" d="M-.236-.031C-.455-.158-.68-.282-.909-.394a3.759,3.759,0,0,0-5.1,5.107c.112.226.233.449.362.669a3.992,3.992,0,0,0,6.215.8,3.993,3.993,0,0,0-.8-6.214" transform="translate(6.475 0.857)" fill="#fff"/>
        </g>
      </g>
    </g>
    <g id="Groupe_1073" data-name="Groupe 1073" transform="translate(29.853 509.595)" opacity="0.202">
      <g id="Groupe_997-2" data-name="Groupe 997" transform="translate(0 -372.584)" clip-path="url(#clip-path)">
        <g id="Groupe_982-2" data-name="Groupe 982" transform="translate(306.789 65.019)">
          <path id="Tracé_11922-2" data-name="Tracé 11922" d="M-.132-.078C-.146-.219-.158-.357-.174-.5a1.7,1.7,0,0,0-3.405,0c-.013.14-.026.277-.04.418C-3.839,2.17.086,2.17-.132-.078" transform="translate(3.628 2.14)" fill="#fff"/>
        </g>
        <g id="Groupe_983-2" data-name="Groupe 983" transform="translate(226.481 57.819)">
          <path id="Tracé_11923-2" data-name="Tracé 11923" d="M-.2-.1c0-3.435-5.328-3.435-5.328,0S-.2,3.338-.2-.1" transform="translate(5.53 2.674)" fill="#fff"/>
        </g>
        <g id="Groupe_984-2" data-name="Groupe 984" transform="translate(279.898 17.604)">
          <path id="Tracé_11924-2" data-name="Tracé 11924" d="M-.144-.07a1.9,1.9,0,0,0-3.8,0,1.9,1.9,0,0,0,3.8,0" transform="translate(3.942 1.908)" fill="#fff"/>
        </g>
        <g id="Groupe_985-2" data-name="Groupe 985" transform="translate(265.235 261.646)">
          <path id="Tracé_11925-2" data-name="Tracé 11925" d="M-.178-.1c0-.138-.01-.276-.015-.418a2.337,2.337,0,0,0-4.672,0c-.006.143-.011.28-.015.418-.1,3.035,4.808,3.035,4.7,0" transform="translate(4.883 2.777)" fill="#fff"/>
        </g>
        <g id="Groupe_986-2" data-name="Groupe 986" transform="translate(178.289 320.473)">
          <path id="Tracé_11926-2" data-name="Tracé 11926" d="M-.017-.059a3.2,3.2,0,0,0,0,3.242,3.237,3.237,0,0,0,5.046.65,3.248,3.248,0,0,0,0-4.546A3.238,3.238,0,0,0-.017-.059" transform="translate(0.458 1.63)" fill="#fff"/>
        </g>
        <g id="Groupe_987-2" data-name="Groupe 987" transform="translate(231.29 254.893)">
          <path id="Tracé_11927-2" data-name="Tracé 11927" d="M-.28-.136c0-4.774-7.4-4.774-7.4,0s7.4,4.775,7.4,0" transform="translate(7.685 3.716)" fill="#fff"/>
        </g>
        <g id="Groupe_988-2" data-name="Groupe 988" transform="translate(237.213 355.2)">
          <path id="Tracé_11928-2" data-name="Tracé 11928" d="M-.148-.072c0-2.525-3.918-2.525-3.918,0s3.918,2.525,3.918,0" transform="translate(4.066 1.966)" fill="#fff"/>
        </g>
        <g id="Groupe_989-2" data-name="Groupe 989" transform="translate(308.475 230.103)">
          <path id="Tracé_11929-2" data-name="Tracé 11929" d="M-.258-.125c0-4.394-6.819-4.394-6.819,0s6.819,4.4,6.819,0" transform="translate(7.077 3.42)" fill="#fff"/>
        </g>
        <g id="Groupe_990-2" data-name="Groupe 990" transform="translate(11.678 116.343)">
          <path id="Tracé_11930-2" data-name="Tracé 11930" d="M-.266-.128c0-4.522-7.012-4.522-7.012,0s7.012,4.522,7.012,0" transform="translate(7.278 3.52)" fill="#fff"/>
        </g>
        <g id="Groupe_991-2" data-name="Groupe 991" transform="translate(17.471 168.022)">
          <path id="Tracé_11931-2" data-name="Tracé 11931" d="M-.08-.039a1.058,1.058,0,0,0-2.114,0,1.058,1.058,0,0,0,2.114,0" transform="translate(2.194 1.063)" fill="#fff"/>
        </g>
        <g id="Groupe_992-2" data-name="Groupe 992" transform="translate(0 193.597)">
          <path id="Tracé_11932-2" data-name="Tracé 11932" d="M-.249-.078a3.848,3.848,0,0,0-3.406-2.05C-6.061-2.4-7.339.641-6.3,2.477c.029.051.06.105.089.158q-.215-.795-.431-1.591c0,.056-.009.112-.013.168.148-.553.3-1.1.447-1.657a1.648,1.648,0,0,0-.2.367A3.606,3.606,0,0,0-3.327,5.283C-.394,5.283.806,2.309-.249-.078" transform="translate(6.811 2.146)" fill="#fff"/>
        </g>
        <g id="Groupe_993-2" data-name="Groupe 993" transform="translate(60.009 63.496)">
          <path id="Tracé_11933-2" data-name="Tracé 11933" d="M-.15-.072c0-2.552-3.957-2.552-3.957,0s3.957,2.55,3.957,0" transform="translate(4.107 1.987)" fill="#fff"/>
        </g>
        <g id="Groupe_994-2" data-name="Groupe 994" transform="translate(258.807 40.252)">
          <path id="Tracé_11934-2" data-name="Tracé 11934" d="M-.247-.19C-.424.3-.334.1.031-.811A3.5,3.5,0,0,0-.32-3.5,3.523,3.523,0,0,0-5.09-4.748,3.5,3.5,0,0,0-3,1.717Q-4.423.635-5.845-.447l.084.257a2.883,2.883,0,0,0,5.514,0" transform="translate(6.771 5.214)" fill="#fff"/>
        </g>
        <g id="Groupe_995-2" data-name="Groupe 995" transform="translate(159.434 0)">
          <path id="Tracé_11935-2" data-name="Tracé 11935" d="M-.279-.135c0-4.75-7.366-4.75-7.366,0s7.366,4.749,7.366,0" transform="translate(7.645 3.698)" fill="#fff"/>
        </g>
        <g id="Groupe_996-2" data-name="Groupe 996" transform="translate(148.01 292.676)">
          <path id="Tracé_11936-2" data-name="Tracé 11936" d="M-.236-.031C-.455-.158-.68-.282-.909-.394a3.759,3.759,0,0,0-5.1,5.107c.112.226.233.449.362.669a3.992,3.992,0,0,0,6.215.8,3.993,3.993,0,0,0-.8-6.214" transform="translate(6.475 0.857)" fill="#fff"/>
        </g>
      </g>
    </g>
    <g id="Groupe_1074" data-name="Groupe 1074" transform="matrix(0.788, 0.616, -0.616, 0.788, -191.529, -171.677)">
      <path id="Tracé_11992" data-name="Tracé 11992" d="M761.472,109.643l-1.455,4.4-5.818.777,4.979,2.8-1.287,5.663,4.234-3.8,5.106,2.691-1.723-4.972,3.232-3.052-5.278-.269Z" transform="translate(0 0)" fill="#ffdd15"/>
      <path id="Tracé_11993" data-name="Tracé 11993" d="M768.743,109.643l.388,5.844,6.88-1.337-5.278-.269Z" transform="translate(-7.271 0)" fill="#ffc121"/>
      <path id="Tracé_11994" data-name="Tracé 11994" d="M773.167,123.044l-3.648-1.714,5.371,6.687Z" transform="translate(-7.659 -5.843)" fill="#ffc121"/>
      <path id="Tracé_11995" data-name="Tracé 11995" d="M765.551,121.329l-3.969,7.8,4.234-3.8Z" transform="translate(-3.691 -5.843)" fill="#ffc121"/>
      <path id="Tracé_11996" data-name="Tracé 11996" d="M761.86,120.664,754.2,120l4.979,2.8Z" transform="translate(0 -5.178)" fill="#ffc121"/>
    </g>
    <g id="Groupe_1101" data-name="Groupe 1101" transform="translate(-909.275 102.255)">
      <path id="Tracé_12145" data-name="Tracé 12145" d="M948.24,119.64a8.448,8.448,0,0,1,2.477.827c7.668,3.792,7.528,14.346,1.1,19.3-4.051,3.12-9.814,2.413-14.066.611,1.366,6.706,10.771,10.613,16.867,10.372,4.534-.182,7.511-2.266,10.845-5.23,6-5.338,6.422-16.624,2.745-23.35-3.1-5.669-9.545-7.684-15.646-6.553-2.948.545-7.429,1.9-9.463,4.315C945.176,119.761,946.594,119.385,948.24,119.64Z" transform="translate(0)" fill="#ffdd15"/>
      <g id="Groupe_1100" data-name="Groupe 1100" transform="translate(947.984 118.125)">
        <g id="Groupe_1082" data-name="Groupe 1082" transform="translate(8.177 26.713)">
          <path id="Tracé_12146" data-name="Tracé 12146" d="M968.27,162.594a.871.871,0,0,0-1.585-.667c-.666,1.135,1.351,1.872,1.585.667Z" transform="translate(-966.551 -161.497)" fill="#dfc017"/>
        </g>
        <g id="Groupe_1083" data-name="Groupe 1083" transform="translate(13.223 23.848)">
          <path id="Tracé_12147" data-name="Tracé 12147" d="M975.885,159.994a1.49,1.49,0,0,0,0-2.978,1.49,1.49,0,0,0,0,2.978Z" transform="translate(-974.444 -157.016)" fill="#dfc017"/>
        </g>
        <g id="Groupe_1084" data-name="Groupe 1084" transform="translate(17.486 19.347)">
          <path id="Tracé_12148" data-name="Tracé 12148" d="M982.027,151.865a.945.945,0,0,0,0-1.889.945.945,0,0,0,0,1.889Z" transform="translate(-981.112 -149.976)" fill="#dfc017"/>
        </g>
        <g id="Groupe_1085" data-name="Groupe 1085" transform="translate(17.937 11.562)">
          <path id="Tracé_12149" data-name="Tracé 12149" d="M983.216,140.686a1.445,1.445,0,0,0,0-2.888,1.445,1.445,0,0,0,0,2.888Z" transform="translate(-981.818 -137.798)" fill="#dfc017"/>
        </g>
        <g id="Groupe_1086" data-name="Groupe 1086" transform="translate(18.232 8.521)">
          <path id="Tracé_12150" data-name="Tracé 12150" d="M982.82,134.163a.561.561,0,0,0,0-1.122.561.561,0,0,0,0,1.122Z" transform="translate(-982.279 -133.041)" fill="#dfc017"/>
        </g>
        <g id="Groupe_1087" data-name="Groupe 1087" transform="translate(16.722 4.762)">
          <path id="Tracé_12151" data-name="Tracé 12151" d="M980.662,128.7a.771.771,0,0,0,0-1.542.771.771,0,0,0,0,1.542Z" transform="translate(-979.917 -127.161)" fill="#dfc017"/>
        </g>
        <g id="Groupe_1088" data-name="Groupe 1088" transform="translate(14.623 6.587)">
          <path id="Tracé_12152" data-name="Tracé 12152" d="M977.422,131.646a.816.816,0,0,0,0-1.63.816.816,0,0,0,0,1.63Z" transform="translate(-976.634 -130.016)" fill="#dfc017"/>
        </g>
        <g id="Groupe_1089" data-name="Groupe 1089" transform="translate(12.91)">
          <path id="Tracé_12153" data-name="Tracé 12153" d="M975.149,122.183a1.236,1.236,0,0,0,0-2.471,1.236,1.236,0,0,0,0,2.471Z" transform="translate(-973.953 -119.712)" fill="#dfc017"/>
        </g>
        <g id="Groupe_1090" data-name="Groupe 1090" transform="translate(13.128 4.17)">
          <path id="Tracé_12154" data-name="Tracé 12154" d="M974.71,127.094a.429.429,0,0,0,0-.859.429.429,0,0,0,0,.859Z" transform="translate(-974.295 -126.235)" fill="#dfc017"/>
        </g>
        <g id="Groupe_1091" data-name="Groupe 1091" transform="translate(15.457 15.275)">
          <path id="Tracé_12155" data-name="Tracé 12155" d="M978.454,144.675a.535.535,0,0,0,0-1.069.535.535,0,0,0,0,1.069Z" transform="translate(-977.937 -143.606)" fill="#dfc017"/>
        </g>
        <g id="Groupe_1092" data-name="Groupe 1092" transform="translate(10.343 24.172)">
          <path id="Tracé_12156" data-name="Tracé 12156" d="M970.524,158.731a.6.6,0,0,0,0-1.208.6.6,0,0,0,0,1.208Z" transform="translate(-969.938 -157.523)" fill="#dfc017"/>
        </g>
        <g id="Groupe_1093" data-name="Groupe 1093" transform="translate(2.706 29.376)">
          <path id="Tracé_12157" data-name="Tracé 12157" d="M960.089,167.425c.024-.035.044-.073.066-.111a1.1,1.1,0,0,0-1.5-1.5c-.036.02-.073.044-.109.064a1.13,1.13,0,1,0,1.544,1.546Z" transform="translate(-957.992 -165.663)" fill="#dfc017"/>
        </g>
        <g id="Groupe_1094" data-name="Groupe 1094" transform="translate(0 27.09)">
          <path id="Tracé_12158" data-name="Tracé 12158" d="M954.413,163.438a.675.675,0,0,0,0-1.35.675.675,0,0,0,0,1.35Z" transform="translate(-953.76 -162.088)" fill="#dfc017"/>
        </g>
        <g id="Groupe_1095" data-name="Groupe 1095" transform="translate(11.541 18.449)">
          <path id="Tracé_12159" data-name="Tracé 12159" d="M972.694,150.391a.911.911,0,0,0,0-1.821.911.911,0,0,0,0,1.821Z" transform="translate(-971.813 -148.57)" fill="#dfc017"/>
        </g>
        <g id="Groupe_1096" data-name="Groupe 1096" transform="translate(12.119 28.565)">
          <path id="Tracé_12160" data-name="Tracé 12160" d="M973.208,165.411a.509.509,0,0,0,0-1.016.509.509,0,0,0,0,1.016Z" transform="translate(-972.716 -164.395)" fill="#dfc017"/>
        </g>
        <g id="Groupe_1097" data-name="Groupe 1097" transform="translate(7.949 30.373)">
          <path id="Tracé_12161" data-name="Tracé 12161" d="M966.743,168.36a.569.569,0,0,0,0-1.138.569.569,0,0,0,0,1.138Z" transform="translate(-966.193 -167.222)" fill="#dfc017"/>
        </g>
        <g id="Groupe_1098" data-name="Groupe 1098" transform="translate(5.105 23.976)">
          <path id="Tracé_12162" data-name="Tracé 12162" d="M962.337,158.443a.614.614,0,0,0,0-1.227.614.614,0,0,0,0,1.227Z" transform="translate(-961.744 -157.216)" fill="#dfc017"/>
        </g>
        <g id="Groupe_1099" data-name="Groupe 1099" transform="translate(11.379 12.318)">
          <path id="Tracé_12163" data-name="Tracé 12163" d="M972.042,139.981a.5.5,0,0,0,0-1,.5.5,0,0,0,0,1Z" transform="translate(-971.56 -138.981)" fill="#dfc017"/>
        </g>
      </g>
    </g>
  </g>
</svg>
