<svg xmlns="http://www.w3.org/2000/svg" width="207.086" height="202.725" viewBox="0 0 207.086 202.725">
  <g id="Logo1" transform="translate(-1640.914 -387.793)">
    <g id="Groupe_820" data-name="Groupe 820" transform="translate(1746.291 387.933)">
      <path id="Tracé_11765" data-name="Tracé 11765" d="M0,0S-89.4-6.858-103.115,75.414-66.41,203.808,0,202.56,108.923,152.5,100.693,73.543C93.282,2.494,0,0,0,0" fill="#d2edfa"/>
    </g>
    <g id="Groupe_821" data-name="Groupe 821" transform="translate(1661.531 499.79)">
      <path id="Tracé_11766" data-name="Tracé 11766" d="M0,0C.027-4.767.172-11.246.531-17.563a.806.806,0,0,1,.859-.584c.858.006,1.066,1.024,1.058,2.149-.011,2.034-.76,10.973-.807,19.168C1.6,9.81,1.836,15.7,2.476,16.3l.106.108a1.876,1.876,0,0,0,.321.054,15.334,15.334,0,0,0,4.395-.67c.053,0,.269-.051.322-.051.482,0,.963.166.959.809-.01,1.874-5.1,1.844-6.115,1.839-.642-.005-1.606-.01-1.816-.921C-.073,12.639-.046,7.98,0,0" fill="#1e60e4"/>
    </g>
    <g id="Groupe_822" data-name="Groupe 822" transform="translate(1677.313 509.829)">
      <path id="Tracé_11767" data-name="Tracé 11767" d="M0,0C.255-.135,1.616-.5,1.931-.581c.942-.261,4.3-.617,4.28-.776l-.085-.8-6-23.655-.149.123c-.016-.16-.439,6.025-.143,25.114A2.457,2.457,0,0,0-.194-.3C-.182-.2-.167-.036,0,0M.072,2.2.6,7.155c.035.318-.506.807-.773.835-.373.04-.94-.224-.984-.65L-1.979-.383c-.344-16.984-.223-21.951-.045-24.339.1-1.089.146-4.218,1.638-4.375,1.6-.17,3.4,4.111,9.81,33.162.065.1.248,1.321.34,1.688.062.586.105,1.5-.694,1.581-.319.035-.869-.069-.967-.49L6.8.68C6.739.579,6.686.585,6.58.6L5.941.664C5.3.732-.024,1.295.072,2.2" fill="#1e60e4"/>
    </g>
    <g id="Groupe_823" data-name="Groupe 823" transform="translate(1693.225 501.069)">
      <path id="Tracé_11768" data-name="Tracé 11768" d="M0,0C-.1.072-.2.09-.182.2L2.847,13.418C7.41,12.161,8.512,7.393,7.423,3.454,6.271-.529,4.045-1.109.1-.019ZM-.648-1.787a4.576,4.576,0,0,0,2.125-1.8c3.259-3.96,3.652-9.037,2.315-13.747C2.675-21.43-.253-21.067-3.252-20.2c-.106.019-.974.339-1.132.367Zm-5.81-18.382c-.166-.623-.05-1.188.625-1.363,4.089-1.171,8.6-2.417,10.961,1.945,1.18,4.141,2.4,9.418.027,13.762a30.227,30.227,0,0,1-2,3.408c.8.235,1.523,0,2.231.306A7.633,7.633,0,0,1,9.258,3.068c1.427,4.913,0,10.285-5.652,11.846l-.158.028c-.781.194-1.922.508-2.2-.421-.056-.316-.128-.412-7.709-34.69" fill="#1e60e4"/>
    </g>
    <g id="Groupe_824" data-name="Groupe 824" transform="translate(1710.948 504.608)">
      <path id="Tracé_11769" data-name="Tracé 11769" d="M0,0C.681,1.171,1.972,6.043,5.013,5.409c3.3-.69,2.539-6.713,2.843-7.87A67.684,67.684,0,0,0,6.181-16.776l-.043-.209C5.689-19.134,3.8-28.425-.5-27.527a2.588,2.588,0,0,0-1.245.588C-5.119-23.991-3.1-12.484-2.093-7.661c.111.525.657,3.145.819,3.659ZM-.542-29.323C5.132-30.179,7.02-21.93,8.1-16.738A70.812,70.812,0,0,1,9.677-2.13C9.622,1.274,9.33,6.423,5.4,7.244-.737,8.525-2.9-2.622-3.929-7.551c-.931-4.457-4.46-20.571,3.387-21.772" fill="#1e60e4"/>
    </g>
    <g id="Groupe_825" data-name="Groupe 825" transform="translate(1723.862 482.181)">
      <path id="Tracé_11770" data-name="Tracé 11770" d="M0,0C-.521-4.042-1.525-8.65-.453-8.737A1.064,1.064,0,0,1,.5-8.258L11.736,16.856,7.248-9.49a1.254,1.254,0,0,1,.326-.6c.526-.1,1.265-.231,1.408.559l1.175,6.427c.241,1.318.482,2.635.6,3.865l4.054,22.179c.114.633.067,1.567-.724,1.712a.857.857,0,0,1-.925-.594L1.307-2.09c1.24,7.4,3.4,16.255,4.694,23.315.338,1.843,1.34,4.655-.081,4.915l-.106.018c-.263.049-.474.088-.719-.358C3.329,17.031.231,1.863,0,0" fill="#1e60e4"/>
    </g>
    <g id="Groupe_826" data-name="Groupe 826" transform="translate(1740.267 479.358)">
      <path id="Tracé_11771" data-name="Tracé 11771" d="M0,0C-.4-4.057-1.267-8.691-.191-8.746a1.063,1.063,0,0,1,.943.507L11.226,17.2,7.529-9.269a1.257,1.257,0,0,1,.343-.594c.529-.08,1.271-.194,1.391.6L10.245-2.8c.2,1.324.4,2.648.482,3.882l3.386,22.289c.1.636.022,1.568-.771,1.689a.858.858,0,0,1-.909-.622L1.367-2.05c1.021,7.429,2.919,16.348,4,23.443.282,1.853,1.2,4.693-.228,4.91l-.107.017c-.264.04-.477.072-.708-.38C2.819,17.121.177,1.869,0,0" fill="#1e60e4"/>
    </g>
    <g id="Groupe_827" data-name="Groupe 827" transform="translate(1758.961 491.539)">
      <path id="Tracé_11772" data-name="Tracé 11772" d="M0,0C-2.328-10.071-2.944-14.161-4.658-21.571a1.294,1.294,0,0,1,.535-1.5,57.579,57.579,0,0,1,5.735-1.821c.991-.229,1.418-.053,1.562.574.072.313-.016.882-.433.98l-5.226,1.646-.236.165c.011.054,1.661,8.136,2.339,11.553.1.418.6,2.336.692,2.753l.209-.047c.445-.214,2.7-1.174,3.155-1.334l.156-.038c.783-.18,1.357-.312,1.537.469C5.73-6.6.572-5.85.717-5.223L4.009,9.023l.443,1.437.208-.049c.419-.1,4.355-2.327,4.982-2.47a.8.8,0,0,1,1.04.693.906.906,0,0,1-.5,1.16L5.5,12.141c-2.453.567-2.754-.737-3.265-2.708C1.886,7.919.326,1.409,0,0" fill="#1e60e4"/>
    </g>
    <g id="Groupe_828" data-name="Groupe 828" transform="translate(1792.932 491.99)">
      <path id="Tracé_11773" data-name="Tracé 11773" d="M0,0A6.068,6.068,0,0,0,1.4-1.3c2.227-2.575,3.43-5.442,2.777-8.743A51.93,51.93,0,0,0,.241-21.273c-2.015-4.319-5.9-12.26-13.178-8.863-.293.136-.608.343-.9.479,3.137,7.106,7.231,16.13,9.359,20.693C-3.028-5.857-1.472-3.156,0,0M-15.99-29.835c-.338-.728.221-1.048.878-1.414C-6.954-36.06-2.783-30.8.445-25.269,5.7-14.007,8.5-6.743,3-.278c-.049.023-.074.094-.122.116A7.859,7.859,0,0,1,.4,2c-1.8.837-2.644-2.372-3.881-4.515C-5.427-6.689-10.524-17.49-15.99-29.835" fill="#1e60e4"/>
    </g>
    <g id="Groupe_829" data-name="Groupe 829" transform="translate(1803.89 474.722)">
      <path id="Tracé_11774" data-name="Tracé 11774" d="M0,0C-5.088-9-6.838-12.746-10.582-19.366a1.3,1.3,0,0,1,.086-1.588,57.979,57.979,0,0,1,4.985-3.372c.886-.5,1.344-.452,1.661.107.158.28.235.851-.138,1.062l-4.545,3.062-.18.225c.026.046,3.9,7.332,5.52,10.416.211.373,1.234,2.071,1.444,2.444l.187-.1C-1.2-7.446.691-9.005,1.084-9.289l.141-.079c.7-.4,1.212-.686,1.607.014.791,1.4-3.942,3.582-3.625,4.141L6.4,7.516l.832,1.253.187-.107C7.8,8.452,10.938,5.2,11.5,4.881a.8.8,0,0,1,1.194.372.906.906,0,0,1-.152,1.254L8.717,10.084c-2.192,1.239-2.85.073-3.9-1.671C4.054,7.06.711,1.259,0,0" fill="#1e60e4"/>
    </g>
    <g id="Groupe_830" data-name="Groupe 830" transform="translate(1817.103 469.052)">
      <path id="Tracé_11775" data-name="Tracé 11775" d="M0,0C-3.811-6.27-8.062-13.464-12.458-20.694a.883.883,0,0,1,.362-1.16c.273-.166.382-.3,5.455-3.191a1,1,0,0,1,1.443.313.96.96,0,0,1-.323,1.324c-1.143.7-2.388,1.328-3.213,1.829a9.879,9.879,0,0,0-1.5,1.037c.864,1.418,4.695,7.926,5.53,9.3l.557.917.175.081,3.614-2.2c.322-.195.746.3.858.482C1.39-10.5-3.4-9.091-2.979-8.406c.333.55,1.929,3.278,2.292,3.873.584.961,2.3,3.678,2.41,3.862.585.961,4.874,7.19,5,7.3.463.66.522,1.376-.117,1.765a.835.835,0,0,1-1.132-.314C4.633,6.9.752,1.236,0,0" fill="#1e60e4"/>
    </g>
    <g id="Groupe_831" data-name="Groupe 831" transform="translate(1658.19 527.131)">
      <path id="Tracé_11776" data-name="Tracé 11776" d="M0,0,.023-1.356A311.778,311.778,0,0,0,41.339-3.008c12.445-1.416,24.953-3.87,37.049-6.244l21.676-4.253c7.453-1.462,15.159-2.975,22.393-5.607a149.68,149.68,0,0,0,16.585-7.621l35.536-18.122.616,1.208L139.659-25.526a150.629,150.629,0,0,1-16.739,7.687c-7.332,2.67-15.091,4.192-22.6,5.665L78.651-7.921c-12.124,2.38-24.661,4.84-37.159,6.26A313.214,313.214,0,0,1,0,0" fill="#1e60e4"/>
    </g>
  </g>
</svg>
