<svg xmlns="http://www.w3.org/2000/svg" width="404.817" height="120.457" viewBox="0 0 404.817 120.457">
  <g id="logo2" transform="translate(-2042.765 204.458)">
    <g id="Groupe_737" data-name="Groupe 737" transform="translate(2105.659 -182.28)">
      <path id="Tracé_11685" data-name="Tracé 11685" d="M0,0C-.7-9.056-1.569-20.326-10.81-21.387-20.148-22.446-23.388-11.85-24.6-7.853l-.289.939c-1.663,5.432-4.471,16.4-12.719,56.544-.042.209-.075.419-.1.631l-1.458,12.333a7.783,7.783,0,0,0-.824.109c-1.274.247-2.341.445-3.289.582-.052-4.248.148-11.588.985-23.108.917-12.633,2.62-26.1,3.747-35.02C-37.959.481-37.532-2.9-37.4-4.686c.116-1.6.469-6.474-2.607-10.021a9.416,9.416,0,0,0-6.508-3.236,9.382,9.382,0,0,0-9.8,6.41,7.5,7.5,0,0,0-.316,1.419C-58.766,7.165-60.07,23.312-60.659,31.4c-1.37,18.848-2.195,30.223-1.216,42.235.014.192.038.383.068.572.481,3.015,2.547,8.165,11.01,8.765a49.577,49.577,0,0,0,11-.276c4.027-.632,6.981-1.964,8.925-3.936,4.408.241,9.488-3.034,10.089-8.123l.72-6.092q.791.032,1.726.1l-.13,8.295c.03,4.675,3.657,8.483,8.632,9.055a8.743,8.743,0,0,0,1,.056c3.575,0,8.809-2.051,9.745-9.919A9.3,9.3,0,0,0,.96,71.1c0-.326.03-.874.056-1.42.054-1.178.093-2.057.047-2.842C1.27,32.79.941,12.165,0,0" fill="#1e35e4"/>
    </g>
    <g id="Groupe_738" data-name="Groupe 738" transform="translate(2105.659 -182.28)">
      <path id="Tracé_11686" data-name="Tracé 11686" d="M0,0C-.7-9.056-1.569-20.326-10.81-21.387-20.148-22.446-23.388-11.85-24.6-7.853l-.289.939c-1.663,5.432-4.471,16.4-12.719,56.544-.042.209-.075.419-.1.631l-1.458,12.333a7.783,7.783,0,0,0-.824.109c-1.274.247-2.341.445-3.289.582-.052-4.248.148-11.588.985-23.108.917-12.633,2.62-26.1,3.747-35.02C-37.959.481-37.532-2.9-37.4-4.686c.116-1.6.469-6.474-2.607-10.021a9.416,9.416,0,0,0-6.508-3.236,9.382,9.382,0,0,0-9.8,6.41,7.5,7.5,0,0,0-.316,1.419C-58.766,7.165-60.07,23.312-60.659,31.4c-1.37,18.848-2.195,30.223-1.216,42.235.014.192.038.383.068.572.481,3.015,2.547,8.165,11.01,8.765a49.577,49.577,0,0,0,11-.276c4.027-.632,6.981-1.964,8.925-3.936,4.408.241,9.488-3.034,10.089-8.123l.72-6.092q.791.032,1.726.1l-.13,8.295c.03,4.675,3.657,8.483,8.632,9.055a8.743,8.743,0,0,0,1,.056c3.575,0,8.809-2.051,9.745-9.919A9.3,9.3,0,0,0,.96,71.1c0-.326.03-.874.056-1.42.054-1.178.093-2.057.047-2.842C1.27,32.79.941,12.165,0,0Z" fill="none" stroke="#1e00b5" stroke-width="1.434"/>
    </g>
    <g id="Groupe_739" data-name="Groupe 739" transform="translate(2174.689 -159.964)">
      <path id="Tracé_11687" data-name="Tracé 11687" d="M0,0-.01.529C-.209,11.887-.4,16.015-3.35,32.213c-.357.971-.636,2.058-.981,3.4A46.411,46.411,0,0,1-6.324,41.9a44.362,44.362,0,0,1-1.053-4.7c-.164-.92-.316-1.752-.5-2.522l-.769-9.1c-.039-.627-.032-3.682.049-8.118.421-24.244,4.208-34.176,6.182-36.847C-1.5-17.744.229-12.91,0,0M-33.452,10.78A33.611,33.611,0,0,0-27.1-.227c-.5,5.447-.718,10.942-.8,16.118l-.027,1.477c-.023,1.229-.036,2.472-.046,3.718a23.47,23.47,0,0,0-5.518-10.255l.043-.051M-46.695-5.1l.362-18.78a4.006,4.006,0,0,1,1.959.455,5.648,5.648,0,0,1,.522,2.636A32.674,32.674,0,0,1-46.695-5.1m-.268,39.21-.017-8.833a8.721,8.721,0,0,1,.626,3.424,18.049,18.049,0,0,1-.609,5.409M125.892,48.9a9.476,9.476,0,0,0-6.733-2.689h-.069a24.471,24.471,0,0,0-5.875,1.134l-.082-22.324c4.95-.8,12.17-2.913,12.141-10.442A9.137,9.137,0,0,0,122.6,7.922c-2.776-2.749-6.33-2.726-8.191-2.708l-.376,0a7.532,7.532,0,0,0-.824.053l-.079.009c.131-5.1.315-13.069.443-18.732l6.535-.564a9.363,9.363,0,0,0,8.539-9.574,9.285,9.285,0,0,0-2.729-6.751c-2.934-2.9-6.8-2.859-8.133-2.864a111.488,111.488,0,0,0-12.295.99l-2.55.3a7.419,7.419,0,0,0-1.189.234,9.918,9.918,0,0,0-4.84,3.116,8.7,8.7,0,0,0-.775-1.1,10.581,10.581,0,0,0-7.674-3.36,7.524,7.524,0,0,0-4.264.976c-.462.264-4.526,2.712-4.856,7.087l-.271,3.192-.8-4.771a9.854,9.854,0,0,0-8.362-8,8.275,8.275,0,0,0-6.181,1.638c-3.349,2.541-4.325,6.835-5.155,13.938l.291-6.831a9.239,9.239,0,0,0-2.387-6.72A10.577,10.577,0,0,0,48.7-35.654a7.472,7.472,0,0,0-4.239,1.107c-.453.28-4.453,2.862-4.635,7.225l-.175,3.212-.948-4.756a9.863,9.863,0,0,0-8.6-7.753,8.354,8.354,0,0,0-6.132,1.824c-3.961,3.2-4.372,8.786-5.12,18.935-.025.341-.058.688-.083,1.032-1.5-11.459-6.086-23.3-19.581-24.25H-.822a18.662,18.662,0,0,0-14.237,5.024C-19.584-29.9-22.5-23.616-24.408-16.408c.089-3.216-.006-6.46-.18-9.676a7.645,7.645,0,0,0-.266-1.619c-4.8-17.166-21.67-16.169-31.565-15.579a9.6,9.6,0,0,0-6.766,3.018,10.19,10.19,0,0,0-2.638,7.4c-.169,28.923-.37,66.567-.387,81.96,0,.756,0,1.024,0,1.122a7.756,7.756,0,0,0,.007.849c.558,8.5,9.168,9.18,12.24,9.131l.16.008c.1,0,.2.005.3.005.127,0,.25,0,.376-.01A26.3,26.3,0,0,0-34.363,51.6a29.841,29.841,0,0,0,7.01-15.264c.929,8.452,3.114,16.13,7.991,21.166A17.4,17.4,0,0,0-6.854,62.887h.286c15.682,0,20.115-18.188,21.815-25.164.751-3.289,1.372-6.677,1.924-10.114q-.146,5.934-.3,12.524l-.306,12.62a7.507,7.507,0,0,0,.289,2.255,8.752,8.752,0,0,0,8.414,6.648l.239.009a9.391,9.391,0,0,0,6.919-2.612,11.536,11.536,0,0,0,3.22-6.507L36,54.294a9.482,9.482,0,0,0,8.949,8.134c.137,0,.272.007.4.007a9.506,9.506,0,0,0,8.632-5.576,8.678,8.678,0,0,0,8.123,6.678l.264.018a9.356,9.356,0,0,0,6.993-2.4,11.5,11.5,0,0,0,3.41-6.4l.305,1.748a9.467,9.467,0,0,0,8.7,8.4c.239.017.477.024.712.024,5.375,0,9.513-4.29,9.964-10.468L93.75,36.611c.015,1.536.033,3.219.05,4.921.052,4.935.1,10,.11,11.876,0,.065.007.33.007.4.125,4.108.452,14.988,13.46,14.988h.176a7.465,7.465,0,0,0,1.773-.225l11.6-2.9A10.054,10.054,0,0,0,125.892,48.9" fill="#1e35e4"/>
    </g>
    <g id="Groupe_740" data-name="Groupe 740" transform="translate(2174.689 -159.964)">
      <path id="Tracé_11688" data-name="Tracé 11688" d="M0,0-.01.529C-.209,11.887-.4,16.015-3.35,32.213c-.357.971-.636,2.058-.981,3.4A46.411,46.411,0,0,1-6.324,41.9a44.362,44.362,0,0,1-1.053-4.7c-.164-.92-.316-1.752-.5-2.522l-.769-9.1c-.039-.627-.032-3.682.049-8.118.421-24.244,4.208-34.176,6.182-36.847C-1.5-17.744.229-12.91,0,0ZM-33.452,10.78A33.611,33.611,0,0,0-27.1-.227c-.5,5.447-.718,10.942-.8,16.118l-.027,1.477c-.023,1.229-.036,2.472-.046,3.718a23.47,23.47,0,0,0-5.518-10.255ZM-46.695-5.1l.362-18.78a4.006,4.006,0,0,1,1.959.455,5.648,5.648,0,0,1,.522,2.636A32.674,32.674,0,0,1-46.695-5.1Zm-.268,39.21-.017-8.833a8.721,8.721,0,0,1,.626,3.424A18.049,18.049,0,0,1-46.963,34.108ZM125.892,48.9a9.476,9.476,0,0,0-6.733-2.689h-.069a24.471,24.471,0,0,0-5.875,1.134l-.082-22.324c4.95-.8,12.17-2.913,12.141-10.442A9.137,9.137,0,0,0,122.6,7.922c-2.776-2.749-6.33-2.726-8.191-2.708l-.376,0a7.532,7.532,0,0,0-.824.053l-.079.009c.131-5.1.315-13.069.443-18.732l6.535-.564a9.363,9.363,0,0,0,8.539-9.574,9.285,9.285,0,0,0-2.729-6.751c-2.934-2.9-6.8-2.859-8.133-2.864a111.488,111.488,0,0,0-12.295.99l-2.55.3a7.419,7.419,0,0,0-1.189.234,9.918,9.918,0,0,0-4.84,3.116,8.7,8.7,0,0,0-.775-1.1,10.581,10.581,0,0,0-7.674-3.36,7.524,7.524,0,0,0-4.264.976c-.462.264-4.526,2.712-4.856,7.087l-.271,3.192-.8-4.771a9.854,9.854,0,0,0-8.362-8,8.275,8.275,0,0,0-6.181,1.638c-3.349,2.541-4.325,6.835-5.155,13.938l.291-6.831a9.239,9.239,0,0,0-2.387-6.72A10.577,10.577,0,0,0,48.7-35.654a7.472,7.472,0,0,0-4.239,1.107c-.453.28-4.453,2.862-4.635,7.225l-.175,3.212-.948-4.756a9.863,9.863,0,0,0-8.6-7.753,8.354,8.354,0,0,0-6.132,1.824c-3.961,3.2-4.372,8.786-5.12,18.935-.025.341-.058.688-.083,1.032-1.5-11.459-6.086-23.3-19.581-24.25H-.822a18.662,18.662,0,0,0-14.237,5.024C-19.584-29.9-22.5-23.616-24.408-16.408c.089-3.216-.006-6.46-.18-9.676a7.645,7.645,0,0,0-.266-1.619c-4.8-17.166-21.67-16.169-31.565-15.579a9.6,9.6,0,0,0-6.766,3.018,10.19,10.19,0,0,0-2.638,7.4c-.169,28.923-.37,66.567-.387,81.96,0,.756,0,1.024,0,1.122a7.756,7.756,0,0,0,.007.849c.558,8.5,9.168,9.18,12.24,9.131l.16.008c.1,0,.2.005.3.005.127,0,.25,0,.376-.01A26.3,26.3,0,0,0-34.363,51.6a29.841,29.841,0,0,0,7.01-15.264c.929,8.452,3.114,16.13,7.991,21.166A17.4,17.4,0,0,0-6.854,62.887h.286c15.682,0,20.115-18.188,21.815-25.164.751-3.289,1.372-6.677,1.924-10.114q-.146,5.934-.3,12.524l-.306,12.62a7.507,7.507,0,0,0,.289,2.255,8.752,8.752,0,0,0,8.414,6.648l.239.009a9.391,9.391,0,0,0,6.919-2.612,11.536,11.536,0,0,0,3.22-6.507L36,54.294a9.482,9.482,0,0,0,8.949,8.134c.137,0,.272.007.4.007a9.506,9.506,0,0,0,8.632-5.576,8.678,8.678,0,0,0,8.123,6.678l.264.018a9.356,9.356,0,0,0,6.993-2.4,11.5,11.5,0,0,0,3.41-6.4l.305,1.748a9.467,9.467,0,0,0,8.7,8.4c.239.017.477.024.712.024,5.375,0,9.513-4.29,9.964-10.468L93.75,36.611c.015,1.536.033,3.219.05,4.921.052,4.935.1,10,.11,11.876,0,.065.007.33.007.4.125,4.108.452,14.988,13.46,14.988h.176a7.465,7.465,0,0,0,1.773-.225l11.6-2.9A10.054,10.054,0,0,0,125.892,48.9Z" fill="none" stroke="#1e00b5" stroke-width="1.434"/>
    </g>
    <g id="Groupe_741" data-name="Groupe 741" transform="translate(2412.741 -112.059)">
      <path id="Tracé_11689" data-name="Tracé 11689" d="M0,0A2.162,2.162,0,0,1,0-.383c.021.129.04.255.06.377ZM-57.733-45.618c-.36,5.946-1.368,17.2-4.114,25.811a13.251,13.251,0,0,1-4.743,6.8c0-.037,0-.074,0-.113.076-3.863.147-7.513.38-11.365.585-9.649,1.863-27.937,3.186-44.895a7.065,7.065,0,0,1,1.894,1.527c4.439,4.989,3.734,16.636,3.4,22.233M16.226-69.082a9.822,9.822,0,0,0,9.267-10.279,9.8,9.8,0,0,0-3.212-6.855,9.914,9.914,0,0,0-7.136-2.545c-12.028.316-13.97.472-15.026.557a9.712,9.712,0,0,0-7.308,3.949,9.126,9.126,0,0,0-1.535-1.958c-2.974-2.855-6.89-2.772-8.174-2.743A110.675,110.675,0,0,0-29.17-87.791l-2.574.337a7.423,7.423,0,0,0-1.183.248,10.513,10.513,0,0,0-7.35,10.54c.037,2.123.061,4.131.077,6.068a28.048,28.048,0,0,0-7.535-12.563c-5.568-5.181-13.408-7.608-23.11-7.215-2.4.036-10.235.79-10.787,8.935-2.233,27.773-3.7,52.487-4.484,65.768l-.281,4.731c-.013.217-.017.435-.013.651.03,1.086-.037,2.37-.106,3.731-.214,4.136-.752,14.5,7.463,16.8a12.708,12.708,0,0,0,2.706.431c3.789.213,7.013-.826,10.229-2.048.05-.014.1-.03.15-.046.237-.067.472-.146.7-.237C-48.884,1.928-42.848-11.516-40.158-27.7c.014.943.027,1.864.044,2.851.029,1.7.144,6.452.26,11.253s.234,9.673.268,11.5c0,.066.012.326.013.39.154,3.5.522,11.923,8.7,14.212a17.611,17.611,0,0,0,5.159.579,7.624,7.624,0,0,0,1.765-.251l11.568-3.072A9.63,9.63,0,0,0-4.748-.156a9.686,9.686,0,0,0-2.895-6.9,9.488,9.488,0,0,0-6.849-2.6,24.465,24.465,0,0,0-5.867,1.221l-.394-22.278c4.94-.874,12.142-3.086,12.009-10.621a9.135,9.135,0,0,0-2.775-6.619c-2.818-2.706-6.334-2.625-8.211-2.585l-.378.008a7.385,7.385,0,0,0-.842.063c-.027.005-.054.009-.084.012.058-5.107.134-13.049.185-18.7l6.522-.657a8.467,8.467,0,0,0,5.563-2.6c.393,8.324.747,16.569,1.088,24.569.391,9.114.768,17.916,1.176,26.165a.006.006,0,0,0,0,0c.188,3.761,1.914,20.155,2.31,23.341.014.125.031.25.054.375a9.533,9.533,0,0,0,6.722,7.8,9.436,9.436,0,0,0,3.082.33,9.691,9.691,0,0,0,6.968-3.418,11.024,11.024,0,0,0,2.328-8.489c-.023-.189-.052-.377-.089-.565-.32-2.254-1.918-17.437-2.024-19.6-.009-.158-.061-.976-.134-2.118-.161-2.517-.429-6.717-.519-8.547-.032-.619-.085-2.08-.144-3.728,3.02-.292,6.155-1.085,8.482-3.6a9.164,9.164,0,0,0,2.424-6.721,10.36,10.36,0,0,0-3.154-6.957,8.246,8.246,0,0,0-6-2.135l-2.581.139c-.088-2.257-.19-4.991-.294-7.739-.074-1.924-.146-3.853-.213-5.633h.156c1.7-.022,3.55-.044,5.356-.142" fill="#1e35e4"/>
    </g>
    <g id="Groupe_742" data-name="Groupe 742" transform="translate(2412.741 -112.059)">
      <path id="Tracé_11690" data-name="Tracé 11690" d="M0,0A2.162,2.162,0,0,1,0-.383c.021.129.04.255.06.377ZM-57.733-45.618c-.36,5.946-1.368,17.2-4.114,25.811a13.251,13.251,0,0,1-4.743,6.8c0-.037,0-.074,0-.113.076-3.863.147-7.513.38-11.365.585-9.649,1.863-27.937,3.186-44.895a7.065,7.065,0,0,1,1.894,1.527C-56.691-62.862-57.4-51.215-57.733-45.618ZM16.226-69.082a9.822,9.822,0,0,0,9.267-10.279,9.8,9.8,0,0,0-3.212-6.855,9.914,9.914,0,0,0-7.136-2.545c-12.028.316-13.97.472-15.026.557a9.712,9.712,0,0,0-7.308,3.949,9.126,9.126,0,0,0-1.535-1.958c-2.974-2.855-6.89-2.772-8.174-2.743A110.675,110.675,0,0,0-29.17-87.791l-2.574.337a7.423,7.423,0,0,0-1.183.248,10.513,10.513,0,0,0-7.35,10.54c.037,2.123.061,4.131.077,6.068a28.048,28.048,0,0,0-7.535-12.563c-5.568-5.181-13.408-7.608-23.11-7.215-2.4.036-10.235.79-10.787,8.935-2.233,27.773-3.7,52.487-4.484,65.768l-.281,4.731c-.013.217-.017.435-.013.651.03,1.086-.037,2.37-.106,3.731-.214,4.136-.752,14.5,7.463,16.8a12.708,12.708,0,0,0,2.706.431c3.789.213,7.013-.826,10.229-2.048.05-.014.1-.03.15-.046.237-.067.472-.146.7-.237C-48.884,1.928-42.848-11.516-40.158-27.7c.014.943.027,1.864.044,2.851.029,1.7.144,6.452.26,11.253s.234,9.673.268,11.5c0,.066.012.326.013.39.154,3.5.522,11.923,8.7,14.212a17.611,17.611,0,0,0,5.159.579,7.624,7.624,0,0,0,1.765-.251l11.568-3.072A9.63,9.63,0,0,0-4.748-.156a9.686,9.686,0,0,0-2.895-6.9,9.488,9.488,0,0,0-6.849-2.6,24.465,24.465,0,0,0-5.867,1.221l-.394-22.278c4.94-.874,12.142-3.086,12.009-10.621a9.135,9.135,0,0,0-2.775-6.619c-2.818-2.706-6.334-2.625-8.211-2.585l-.378.008a7.385,7.385,0,0,0-.842.063c-.027.005-.054.009-.084.012.058-5.107.134-13.049.185-18.7l6.522-.657a8.467,8.467,0,0,0,5.563-2.6c.393,8.324.747,16.569,1.088,24.569.391,9.114.768,17.916,1.176,26.165a.006.006,0,0,0,0,0c.188,3.761,1.914,20.155,2.31,23.341.014.125.031.25.054.375a9.533,9.533,0,0,0,6.722,7.8,9.436,9.436,0,0,0,3.082.33,9.691,9.691,0,0,0,6.968-3.418,11.024,11.024,0,0,0,2.328-8.489c-.023-.189-.052-.377-.089-.565-.32-2.254-1.918-17.437-2.024-19.6-.009-.158-.061-.976-.134-2.118-.161-2.517-.429-6.717-.519-8.547-.032-.619-.085-2.08-.144-3.728,3.02-.292,6.155-1.085,8.482-3.6a9.164,9.164,0,0,0,2.424-6.721,10.36,10.36,0,0,0-3.154-6.957,8.246,8.246,0,0,0-6-2.135l-2.581.139c-.088-2.257-.19-4.991-.294-7.739-.074-1.924-.146-3.853-.213-5.633h.156C12.568-68.962,14.42-68.984,16.226-69.082Z" fill="none" stroke="#1e00b5" stroke-width="1.434"/>
    </g>
    <g id="Groupe_743" data-name="Groupe 743" transform="translate(2071.918 -115)">
      <path id="Tracé_11691" data-name="Tracé 11691" d="M0,0A6.417,6.417,0,0,1,.9.013,7.366,7.366,0,0,0,0,0M44.5-60.824c-.7-9.057-1.57-20.326-10.81-21.389C24.342-83.276,21.113-72.672,19.9-68.678l-.289.94c-1.663,5.432-4.472,16.4-12.718,56.544-.043.208-.076.419-.1.631L5.435.886A10.536,10.536,0,0,0,1.693-.059,8.936,8.936,0,0,0-.172.01a8.259,8.259,0,0,0-.9.119C-2.347.376-3.42.572-4.365.711c-.052-4.248.148-11.588.985-23.108C-2.461-35.03-.76-48.5.367-57.417c.59-4.677,1.019-8.055,1.148-9.842.116-1.6.469-6.475-2.605-10.022A9.42,9.42,0,0,0-7.6-80.516a9.376,9.376,0,0,0-9.8,6.409,7.344,7.344,0,0,0-.314,1.419c-2.139,17.279-3.445,33.426-4.034,41.514h0c-1.369,18.847-2.195,30.222-1.216,42.234q.022.288.068.572c.481,3.015,2.548,8.165,11.01,8.765a49.515,49.515,0,0,0,11-.276c4.228-.664,7.276-2.094,9.207-4.234a9.965,9.965,0,0,0,4.866,2.045c4.493.495,9.907-2.866,10.524-8.122l.722-6.09q.787.032,1.724.1l-.131,8.3c.03,4.673,3.66,8.482,8.633,9.054a8.526,8.526,0,0,0,1,.056c3.573,0,8.807-2.051,9.746-9.919a10.085,10.085,0,0,0,.05-1.029c0-.325.029-.872.054-1.418a27.966,27.966,0,0,0,.048-2.842c.206-34.047-.121-54.672-1.063-66.837" fill="#1e60e4"/>
    </g>
    <g id="Groupe_744" data-name="Groupe 744" transform="translate(2071.918 -115)">
      <path id="Tracé_11692" data-name="Tracé 11692" d="M0,0A6.417,6.417,0,0,1,.9.013,7.366,7.366,0,0,0,0,0ZM44.5-60.824c-.7-9.057-1.57-20.326-10.81-21.389C24.342-83.276,21.113-72.672,19.9-68.678l-.289.94c-1.663,5.432-4.472,16.4-12.718,56.544-.043.208-.076.419-.1.631L5.435.886A10.536,10.536,0,0,0,1.693-.059,8.936,8.936,0,0,0-.172.01a8.259,8.259,0,0,0-.9.119C-2.347.376-3.42.572-4.365.711c-.052-4.248.148-11.588.985-23.108C-2.461-35.03-.76-48.5.367-57.417c.59-4.677,1.019-8.055,1.148-9.842.116-1.6.469-6.475-2.605-10.022A9.42,9.42,0,0,0-7.6-80.516a9.376,9.376,0,0,0-9.8,6.409,7.344,7.344,0,0,0-.314,1.419c-2.139,17.279-3.445,33.426-4.034,41.514h0c-1.369,18.847-2.195,30.222-1.216,42.234q.022.288.068.572c.481,3.015,2.548,8.165,11.01,8.765a49.515,49.515,0,0,0,11-.276c4.228-.664,7.276-2.094,9.207-4.234a9.965,9.965,0,0,0,4.866,2.045c4.493.495,9.907-2.866,10.524-8.122l.722-6.09q.787.032,1.724.1l-.131,8.3c.03,4.673,3.66,8.482,8.633,9.054a8.526,8.526,0,0,0,1,.056c3.573,0,8.807-2.051,9.746-9.919a10.085,10.085,0,0,0,.05-1.029c0-.325.029-.872.054-1.418a27.966,27.966,0,0,0,.048-2.842C45.768-28.034,45.441-48.659,44.5-60.824Z" fill="none" stroke="#427ae1" stroke-width="1.434"/>
    </g>
    <g id="Groupe_745" data-name="Groupe 745" transform="translate(2185.447 -153.51)">
      <path id="Tracé_11693" data-name="Tracé 11693" d="M0,0-.01.529C-.209,11.887-.4,16.015-3.349,32.213c-.358.971-.637,2.058-.981,3.4A46.435,46.435,0,0,1-6.324,41.9a44.362,44.362,0,0,1-1.053-4.7c-.164-.92-.316-1.752-.5-2.522l-.769-9.1c-.039-.627-.032-3.682.049-8.118.422-24.244,4.208-34.176,6.182-36.847C-1.5-17.744.229-12.91,0,0M-33.452,10.778a33.6,33.6,0,0,0,6.353-11c-.5,5.447-.717,10.942-.8,16.118l-.027,1.477c-.023,1.229-.036,2.472-.046,3.718a23.47,23.47,0,0,0-5.518-10.255c.016-.018.03-.037.043-.053M-46.695-5.1l.362-18.78a4,4,0,0,1,1.959.455,5.648,5.648,0,0,1,.522,2.636A32.674,32.674,0,0,1-46.695-5.1m-.268,39.21-.017-8.833a8.721,8.721,0,0,1,.626,3.424,18.017,18.017,0,0,1-.609,5.409M125.893,48.9a9.514,9.514,0,0,0-6.8-2.689,24.468,24.468,0,0,0-5.876,1.134l-.082-22.324c4.95-.8,12.17-2.913,12.141-10.442A9.137,9.137,0,0,0,122.6,7.922c-2.776-2.749-6.306-2.725-8.191-2.708l-.375,0a7.534,7.534,0,0,0-.825.053l-.079.009c.131-5.1.316-13.069.443-18.732l6.536-.564a9.365,9.365,0,0,0,8.539-9.574,9.289,9.289,0,0,0-2.73-6.751c-2.93-2.9-6.793-2.859-8.133-2.864a111.488,111.488,0,0,0-12.295.99l-2.55.3a7.419,7.419,0,0,0-1.189.234,9.918,9.918,0,0,0-4.84,3.116,8.7,8.7,0,0,0-.775-1.1,10.579,10.579,0,0,0-7.674-3.36,7.469,7.469,0,0,0-4.264.976c-.462.264-4.526,2.712-4.856,7.087l-.271,3.192-.8-4.771a9.853,9.853,0,0,0-8.361-8,8.258,8.258,0,0,0-6.181,1.638c-3.35,2.541-4.325,6.835-5.156,13.938l.291-6.831a9.239,9.239,0,0,0-2.387-6.72A10.577,10.577,0,0,0,48.7-35.654a7.5,7.5,0,0,0-4.239,1.107c-.453.28-4.453,2.862-4.635,7.225l-.175,3.212-.948-4.756a9.861,9.861,0,0,0-8.6-7.753,8.334,8.334,0,0,0-6.132,1.824c-3.96,3.2-4.372,8.786-5.12,18.935-.025.341-.058.688-.083,1.032-1.5-11.459-6.086-23.3-19.581-24.25a.044.044,0,0,0-.016,0,18.65,18.65,0,0,0-14.237,5.025C-19.584-29.9-22.5-23.616-24.408-16.408c.089-3.216-.006-6.46-.179-9.676a7.636,7.636,0,0,0-.267-1.619c-4.8-17.167-21.672-16.166-31.565-15.579a9.6,9.6,0,0,0-6.766,3.018,10.194,10.194,0,0,0-2.638,7.4c-.169,28.923-.37,66.567-.387,81.96,0,.756,0,1.024,0,1.122a7.514,7.514,0,0,0,.008.849c.559,8.5,9.134,9.187,12.24,9.131l.159.008c.1,0,.2.005.3.005.126,0,.249,0,.375-.01A26.3,26.3,0,0,0-34.363,51.6a29.833,29.833,0,0,0,7.01-15.264c.929,8.45,3.114,16.13,7.991,21.166A17.4,17.4,0,0,0-6.854,62.887h.286c15.683,0,20.115-18.188,21.815-25.164.751-3.289,1.372-6.677,1.925-10.114q-.147,5.934-.3,12.524l-.306,12.62a7.507,7.507,0,0,0,.289,2.255,8.753,8.753,0,0,0,8.414,6.648l.24.009a9.408,9.408,0,0,0,6.918-2.612,11.536,11.536,0,0,0,3.22-6.507L36,54.294a9.478,9.478,0,0,0,8.95,8.132c.136.006.271.009.4.009a9.506,9.506,0,0,0,8.632-5.576,8.679,8.679,0,0,0,8.123,6.678l.264.018a9.375,9.375,0,0,0,6.993-2.4,11.5,11.5,0,0,0,3.41-6.4l.305,1.747a9.467,9.467,0,0,0,8.7,8.4c.239.017.477.024.712.024,5.375,0,9.514-4.29,9.964-10.468L93.75,36.611c.016,1.536.033,3.219.05,4.921.052,4.935.1,10,.111,11.876,0,.065.007.33.007.4.124,4.108.452,14.988,13.459,14.988h.176a7.517,7.517,0,0,0,1.773-.225l11.6-2.9A10.054,10.054,0,0,0,125.893,48.9" fill="#1e60e4"/>
    </g>
    <g id="Groupe_746" data-name="Groupe 746" transform="translate(2185.447 -153.51)">
      <path id="Tracé_11694" data-name="Tracé 11694" d="M0,0-.01.529C-.209,11.887-.4,16.015-3.349,32.213c-.358.971-.637,2.058-.981,3.4A46.435,46.435,0,0,1-6.324,41.9a44.362,44.362,0,0,1-1.053-4.7c-.164-.92-.316-1.752-.5-2.522l-.769-9.1c-.039-.627-.032-3.682.049-8.118.422-24.244,4.208-34.176,6.182-36.847C-1.5-17.744.229-12.91,0,0ZM-33.452,10.778a33.6,33.6,0,0,0,6.353-11c-.5,5.447-.717,10.942-.8,16.118l-.027,1.477c-.023,1.229-.036,2.472-.046,3.718a23.47,23.47,0,0,0-5.518-10.255C-33.479,10.813-33.465,10.794-33.452,10.778ZM-46.695-5.1l.362-18.78a4,4,0,0,1,1.959.455,5.648,5.648,0,0,1,.522,2.636A32.674,32.674,0,0,1-46.695-5.1Zm-.268,39.21-.017-8.833a8.721,8.721,0,0,1,.626,3.424A18.017,18.017,0,0,1-46.963,34.108ZM125.893,48.9a9.514,9.514,0,0,0-6.8-2.689,24.468,24.468,0,0,0-5.876,1.134l-.082-22.324c4.95-.8,12.17-2.913,12.141-10.442A9.137,9.137,0,0,0,122.6,7.922c-2.776-2.749-6.306-2.725-8.191-2.708l-.375,0a7.534,7.534,0,0,0-.825.053l-.079.009c.131-5.1.316-13.069.443-18.732l6.536-.564a9.365,9.365,0,0,0,8.539-9.574,9.289,9.289,0,0,0-2.73-6.751c-2.93-2.9-6.793-2.859-8.133-2.864a111.488,111.488,0,0,0-12.295.99l-2.55.3a7.419,7.419,0,0,0-1.189.234,9.918,9.918,0,0,0-4.84,3.116,8.7,8.7,0,0,0-.775-1.1,10.579,10.579,0,0,0-7.674-3.36,7.469,7.469,0,0,0-4.264.976c-.462.264-4.526,2.712-4.856,7.087l-.271,3.192-.8-4.771a9.853,9.853,0,0,0-8.361-8,8.258,8.258,0,0,0-6.181,1.638c-3.35,2.541-4.325,6.835-5.156,13.938l.291-6.831a9.239,9.239,0,0,0-2.387-6.72A10.577,10.577,0,0,0,48.7-35.654a7.5,7.5,0,0,0-4.239,1.107c-.453.28-4.453,2.862-4.635,7.225l-.175,3.212-.948-4.756a9.861,9.861,0,0,0-8.6-7.753,8.334,8.334,0,0,0-6.132,1.824c-3.96,3.2-4.372,8.786-5.12,18.935-.025.341-.058.688-.083,1.032-1.5-11.459-6.086-23.3-19.581-24.25a.044.044,0,0,0-.016,0,18.65,18.65,0,0,0-14.237,5.025C-19.584-29.9-22.5-23.616-24.408-16.408c.089-3.216-.006-6.46-.179-9.676a7.636,7.636,0,0,0-.267-1.619c-4.8-17.167-21.672-16.166-31.565-15.579a9.6,9.6,0,0,0-6.766,3.018,10.194,10.194,0,0,0-2.638,7.4c-.169,28.923-.37,66.567-.387,81.96,0,.756,0,1.024,0,1.122a7.514,7.514,0,0,0,.008.849c.559,8.5,9.134,9.187,12.24,9.131l.159.008c.1,0,.2.005.3.005.126,0,.249,0,.375-.01A26.3,26.3,0,0,0-34.363,51.6a29.833,29.833,0,0,0,7.01-15.264c.929,8.45,3.114,16.13,7.991,21.166A17.4,17.4,0,0,0-6.854,62.887h.286c15.683,0,20.115-18.188,21.815-25.164.751-3.289,1.372-6.677,1.925-10.114q-.147,5.934-.3,12.524l-.306,12.62a7.507,7.507,0,0,0,.289,2.255,8.753,8.753,0,0,0,8.414,6.648l.24.009a9.408,9.408,0,0,0,6.918-2.612,11.536,11.536,0,0,0,3.22-6.507L36,54.294a9.478,9.478,0,0,0,8.95,8.132c.136.006.271.009.4.009a9.506,9.506,0,0,0,8.632-5.576,8.679,8.679,0,0,0,8.123,6.678l.264.018a9.375,9.375,0,0,0,6.993-2.4,11.5,11.5,0,0,0,3.41-6.4l.305,1.747a9.467,9.467,0,0,0,8.7,8.4c.239.017.477.024.712.024,5.375,0,9.514-4.29,9.964-10.468L93.75,36.611c.016,1.536.033,3.219.05,4.921.052,4.935.1,10,.111,11.876,0,.065.007.33.007.4.124,4.108.452,14.988,13.459,14.988h.176a7.517,7.517,0,0,0,1.773-.225l11.6-2.9A10.054,10.054,0,0,0,125.893,48.9Z" fill="none" stroke="#427ae1" stroke-width="1.434"/>
    </g>
    <g id="Groupe_747" data-name="Groupe 747" transform="translate(2421.359 -102.941)">
      <path id="Tracé_11695" data-name="Tracé 11695" d="M0,0A2.162,2.162,0,0,1,0-.383c.021.129.04.255.06.377ZM-57.734-45.618c-.359,5.946-1.367,17.2-4.113,25.811A13.244,13.244,0,0,1-66.592-13c0-.038,0-.075,0-.114.076-3.863.147-7.513.38-11.365.585-9.649,1.863-27.937,3.186-44.895a7.107,7.107,0,0,1,1.895,1.527c4.438,4.989,3.733,16.636,3.4,22.233m73.96-23.464a9.822,9.822,0,0,0,9.267-10.279,9.8,9.8,0,0,0-3.212-6.855,9.907,9.907,0,0,0-7.136-2.545c-12.028.316-13.97.472-15.026.557a9.714,9.714,0,0,0-7.308,3.949,9.126,9.126,0,0,0-1.535-1.958c-2.975-2.856-6.89-2.772-8.173-2.743A110.624,110.624,0,0,0-29.17-87.791l-2.574.337a7.559,7.559,0,0,0-1.183.248,10.516,10.516,0,0,0-7.35,10.542c.037,2.121.061,4.129.077,6.066a28.041,28.041,0,0,0-7.536-12.563c-5.567-5.181-13.406-7.608-23.109-7.215-2.4.036-10.234.79-10.787,8.936-2.233,27.772-3.7,52.486-4.482,65.767l-.283,4.731c-.013.217-.017.435-.013.651.03,1.086-.037,2.37-.106,3.731-.214,4.136-.752,14.5,7.463,16.8a12.718,12.718,0,0,0,2.706.431c3.789.213,7.013-.826,10.229-2.048.05-.014.1-.03.15-.046a7,7,0,0,0,.7-.237C-48.884,1.928-42.848-11.516-40.158-27.7c.014.941.027,1.862.044,2.849.029,1.7.144,6.452.26,11.253s.234,9.673.268,11.5c0,.066.012.326.013.39.154,3.5.522,11.925,8.7,14.212a17.615,17.615,0,0,0,5.159.579,7.624,7.624,0,0,0,1.765-.251l11.568-3.07A9.634,9.634,0,0,0-4.748-.156a9.688,9.688,0,0,0-2.895-6.9,9.493,9.493,0,0,0-6.849-2.6,24.465,24.465,0,0,0-5.867,1.221l-.394-22.278c4.94-.872,12.144-3.086,12.009-10.621a9.14,9.14,0,0,0-2.774-6.619c-2.82-2.707-6.336-2.625-8.212-2.585l-.378.008a7.4,7.4,0,0,0-.842.063c-.027.005-.054.009-.084.012.058-5.107.133-13.049.185-18.7l6.522-.657a8.467,8.467,0,0,0,5.563-2.6c.393,8.324.747,16.569,1.088,24.569.391,9.114.768,17.916,1.177,26.165l0,0c.189,3.761,1.915,20.155,2.311,23.341.014.125.031.25.054.375a9.531,9.531,0,0,0,6.722,7.8,9.439,9.439,0,0,0,3.082.33,9.694,9.694,0,0,0,6.968-3.417,11.024,11.024,0,0,0,2.328-8.49c-.023-.189-.052-.377-.089-.565-.32-2.254-1.918-17.436-2.024-19.6-.009-.158-.061-.976-.134-2.118-.16-2.517-.429-6.717-.519-8.547-.031-.619-.084-2.08-.143-3.728,3.019-.292,6.155-1.083,8.481-3.6a9.165,9.165,0,0,0,2.425-6.721,10.367,10.367,0,0,0-3.155-6.957,8.226,8.226,0,0,0-6-2.135l-2.582.139c-.087-2.257-.189-4.991-.293-7.739-.074-1.924-.146-3.853-.213-5.632h.155c1.7-.022,3.551-.044,5.357-.142" fill="#1e60e4"/>
    </g>
    <g id="Groupe_748" data-name="Groupe 748" transform="translate(2421.359 -102.941)">
      <path id="Tracé_11696" data-name="Tracé 11696" d="M0,0A2.162,2.162,0,0,1,0-.383c.021.129.04.255.06.377ZM-57.734-45.618c-.359,5.946-1.367,17.2-4.113,25.811A13.244,13.244,0,0,1-66.592-13c0-.038,0-.075,0-.114.076-3.863.147-7.513.38-11.365.585-9.649,1.863-27.937,3.186-44.895a7.107,7.107,0,0,1,1.895,1.527C-56.691-62.862-57.4-51.215-57.734-45.618Zm73.96-23.464a9.822,9.822,0,0,0,9.267-10.279,9.8,9.8,0,0,0-3.212-6.855,9.907,9.907,0,0,0-7.136-2.545c-12.028.316-13.97.472-15.026.557a9.714,9.714,0,0,0-7.308,3.949,9.126,9.126,0,0,0-1.535-1.958c-2.975-2.856-6.89-2.772-8.173-2.743A110.624,110.624,0,0,0-29.17-87.791l-2.574.337a7.559,7.559,0,0,0-1.183.248,10.516,10.516,0,0,0-7.35,10.542c.037,2.121.061,4.129.077,6.066a28.041,28.041,0,0,0-7.536-12.563c-5.567-5.181-13.406-7.608-23.109-7.215-2.4.036-10.234.79-10.787,8.936-2.233,27.772-3.7,52.486-4.482,65.767l-.283,4.731c-.013.217-.017.435-.013.651.03,1.086-.037,2.37-.106,3.731-.214,4.136-.752,14.5,7.463,16.8a12.718,12.718,0,0,0,2.706.431c3.789.213,7.013-.826,10.229-2.048.05-.014.1-.03.15-.046a7,7,0,0,0,.7-.237C-48.884,1.928-42.848-11.516-40.158-27.7c.014.941.027,1.862.044,2.849.029,1.7.144,6.452.26,11.253s.234,9.673.268,11.5c0,.066.012.326.013.39.154,3.5.522,11.925,8.7,14.212a17.615,17.615,0,0,0,5.159.579,7.624,7.624,0,0,0,1.765-.251l11.568-3.07A9.634,9.634,0,0,0-4.748-.156a9.688,9.688,0,0,0-2.895-6.9,9.493,9.493,0,0,0-6.849-2.6,24.465,24.465,0,0,0-5.867,1.221l-.394-22.278c4.94-.872,12.144-3.086,12.009-10.621a9.14,9.14,0,0,0-2.774-6.619c-2.82-2.707-6.336-2.625-8.212-2.585l-.378.008a7.4,7.4,0,0,0-.842.063c-.027.005-.054.009-.084.012.058-5.107.133-13.049.185-18.7l6.522-.657a8.467,8.467,0,0,0,5.563-2.6c.393,8.324.747,16.569,1.088,24.569.391,9.114.768,17.916,1.177,26.165l0,0c.189,3.761,1.915,20.155,2.311,23.341.014.125.031.25.054.375a9.531,9.531,0,0,0,6.722,7.8,9.439,9.439,0,0,0,3.082.33,9.694,9.694,0,0,0,6.968-3.417,11.024,11.024,0,0,0,2.328-8.49c-.023-.189-.052-.377-.089-.565-.32-2.254-1.918-17.436-2.024-19.6-.009-.158-.061-.976-.134-2.118-.16-2.517-.429-6.717-.519-8.547-.031-.619-.084-2.08-.143-3.728,3.019-.292,6.155-1.083,8.481-3.6a9.165,9.165,0,0,0,2.425-6.721,10.367,10.367,0,0,0-3.155-6.957,8.226,8.226,0,0,0-6-2.135l-2.582.139c-.087-2.257-.189-4.991-.293-7.739-.074-1.924-.146-3.853-.213-5.632h.155C12.569-68.962,14.42-68.984,16.226-69.082Z" fill="none" stroke="#427ae1" stroke-width="1.434"/>
    </g>
    <g id="Groupe_749" data-name="Groupe 749" transform="translate(2056.519 -144.081)">
      <path id="Tracé_11697" data-name="Tracé 11697" d="M0,0C.387-11.148,1.166-26.294,2.433-41.049a1.888,1.888,0,0,1,2.051-1.307c2,.069,2.421,2.466,2.329,5.1C6.648-32.5,4.292-11.639,3.625,7.525,3.084,23.057,3.23,36.856,4.686,38.286l.241.26a4.479,4.479,0,0,0,.748.151A35.864,35.864,0,0,0,16,37.426c.125,0,.632-.1.756-.1,1.126.037,2.241.453,2.189,1.957-.152,4.383-12.052,3.97-14.431,3.886-1.5-.052-3.757-.131-4.185-2.277C-1.029,29.559-.651,18.663,0,0" fill="#fff"/>
    </g>
    <g id="Groupe_750" data-name="Groupe 750" transform="translate(2056.519 -144.081)">
      <path id="Tracé_11698" data-name="Tracé 11698" d="M0,0C.387-11.148,1.166-26.294,2.433-41.049a1.888,1.888,0,0,1,2.051-1.307c2,.069,2.421,2.466,2.329,5.1C6.648-32.5,4.292-11.639,3.625,7.525,3.084,23.057,3.23,36.856,4.686,38.286l.241.26a4.479,4.479,0,0,0,.748.151A35.864,35.864,0,0,0,16,37.426c.125,0,.632-.1.756-.1,1.126.037,2.241.453,2.189,1.957-.152,4.383-12.052,3.97-14.431,3.886-1.5-.052-3.757-.131-4.185-2.277C-1.029,29.559-.651,18.663,0,0Z" fill="none" stroke="#d2edfa" stroke-width="1.434"/>
    </g>
    <g id="Groupe_751" data-name="Groupe 751" transform="translate(2093.741 -121.05)">
      <path id="Tracé_11699" data-name="Tracé 11699" d="M0,0C.644-.2,3.933-.442,4.692-.506,6.971-.7,14.844-.075,14.874-.449l.149-1.875-3.632-57L11-59.1c.031-.374-3.6,13.67-11.137,57.709a5.467,5.467,0,0,0-.174.615C-.336-.529-.366-.155,0,0M-.783,5.094l-.927,11.62c-.06.749-1.513,1.639-2.137,1.589-.877-.069-2.066-.918-1.987-1.919L-4.389-1.733C2.132-40.949,4.547-52.324,5.985-57.741c.7-2.46,2.151-9.637,5.65-9.359,3.748.3,6.046,10.919,8.3,80.508.106.261,0,3.144.057,4.029-.11,1.374-.4,3.488-2.278,3.339-.75-.06-1.97-.535-2.016-1.545L15.36,4.494c-.106-.261-.231-.27-.481-.29l-1.5-.119C11.881,3.965-.614,2.969-.783,5.094" fill="#fff"/>
    </g>
    <g id="Groupe_752" data-name="Groupe 752" transform="translate(2093.741 -121.05)">
      <path id="Tracé_11700" data-name="Tracé 11700" d="M0,0C.644-.2,3.933-.442,4.692-.506,6.971-.7,14.844-.075,14.874-.449l.149-1.875-3.632-57L11-59.1c.031-.374-3.6,13.67-11.137,57.709a5.467,5.467,0,0,0-.174.615C-.336-.529-.366-.155,0,0ZM-.783,5.094l-.927,11.62c-.06.749-1.513,1.639-2.137,1.589-.877-.069-2.066-.918-1.987-1.919L-4.389-1.733C2.132-40.949,4.547-52.324,5.985-57.741c.7-2.46,2.151-9.637,5.65-9.359,3.748.3,6.046,10.919,8.3,80.508.106.261,0,3.144.057,4.029-.11,1.374-.4,3.488-2.278,3.339-.75-.06-1.97-.535-2.016-1.545L15.36,4.494c-.106-.261-.231-.27-.481-.29l-1.5-.119C11.881,3.965-.614,2.969-.783,5.094Z" fill="none" stroke="#d2edfa" stroke-width="1.434"/>
    </g>
    <g id="Groupe_753" data-name="Groupe 753" transform="translate(2134.113 -134.353)">
      <path id="Tracé_11701" data-name="Tracé 11701" d="M0,0C-.251.123-.5.122-.5.372L.778,32.091C11.814,31.166,16.4,20.67,15.588,11.138,14.654,1.482,9.781-.809.25,0ZM-.721-4.392C1.41-4.627,3.552-6.243,4.94-7.611c9.2-7.706,12.293-19.216,11.245-30.628-.808-9.906-7.7-10.331-14.973-9.629-.251,0-2.384.358-2.76.355ZM-6.174-49.175c-.114-1.5.4-2.754,2.026-2.867,9.907-.934,20.819-1.859,24.376,9.194.933,10.033,1.469,22.7-5.862,31.668A70.868,70.868,0,0,1,8.3-4.2c1.747.889,3.5.651,5,1.664C17.668.5,19.511,5.776,19.976,11.044c1.17,11.914-4.428,23.656-18.1,24.814l-.376,0c-1.882.112-4.64.343-4.874-1.915.005-.751-.119-1-2.8-83.116" fill="#fff"/>
    </g>
    <g id="Groupe_754" data-name="Groupe 754" transform="translate(2134.113 -134.353)">
      <path id="Tracé_11702" data-name="Tracé 11702" d="M0,0C-.251.123-.5.122-.5.372L.778,32.091C11.814,31.166,16.4,20.67,15.588,11.138,14.654,1.482,9.781-.809.25,0ZM-.721-4.392C1.41-4.627,3.552-6.243,4.94-7.611c9.2-7.706,12.293-19.216,11.245-30.628-.808-9.906-7.7-10.331-14.973-9.629-.251,0-2.384.358-2.76.355ZM-6.174-49.175c-.114-1.5.4-2.754,2.026-2.867,9.907-.934,20.819-1.859,24.376,9.194.933,10.033,1.469,22.7-5.862,31.668A70.868,70.868,0,0,1,8.3-4.2c1.747.889,3.5.651,5,1.664C17.668.5,19.511,5.776,19.976,11.044c1.17,11.914-4.428,23.656-18.1,24.814l-.376,0c-1.882.112-4.64.343-4.874-1.915C-3.366,33.19-3.49,32.937-6.174-49.175Z" fill="none" stroke="#d2edfa" stroke-width="1.434"/>
    </g>
    <g id="Groupe_755" data-name="Groupe 755" transform="translate(2173.361 -118.584)">
      <path id="Tracé_11703" data-name="Tracé 11703" d="M0,0C1.064,2.986,1.938,14.752,9.206,14.6,17.1,14.436,17.932.251,19.132-2.282c2.519-17.477,2.549-21.991,2.305-33.646l-.01-.5c-.106-5.137-.444-27.32-10.72-27.1a6.053,6.053,0,0,0-3.117.818c-9.042,5.328-9.347,32.664-9.106,44.194.027,1.252.156,7.518.308,8.769ZM11.372-67.686c13.423.472,14.214,20.262,14.473,32.669A165.921,165.921,0,0,1,23.177-.736C21.585,7.07,18.7,18.79,9.3,18.986-5.365,19.292-5.544-7.281-5.789-19.061-6.012-29.711-7.2-68.3,11.372-67.686" fill="#fff"/>
    </g>
    <g id="Groupe_756" data-name="Groupe 756" transform="translate(2173.361 -118.584)">
      <path id="Tracé_11704" data-name="Tracé 11704" d="M0,0C1.064,2.986,1.938,14.752,9.206,14.6,17.1,14.436,17.932.251,19.132-2.282c2.519-17.477,2.549-21.991,2.305-33.646l-.01-.5c-.106-5.137-.444-27.32-10.72-27.1a6.053,6.053,0,0,0-3.117.818c-9.042,5.328-9.347,32.664-9.106,44.194.027,1.252.156,7.518.308,8.769ZM11.372-67.686c13.423.472,14.214,20.262,14.473,32.669A165.921,165.921,0,0,1,23.177-.736C21.585,7.07,18.7,18.79,9.3,18.986-5.365,19.292-5.544-7.281-5.789-19.061-6.012-29.711-7.2-68.3,11.372-67.686Z" fill="none" stroke="#d2edfa" stroke-width="1.434"/>
    </g>
    <g id="Groupe_757" data-name="Groupe 757" transform="translate(2212.719 -164.615)">
      <path id="Tracé_11705" data-name="Tracé 11705" d="M0,0C.542-9.523.214-20.554,2.718-20.293a2.492,2.492,0,0,1,2,1.513L19.742,43.826l1.017-62.538a2.939,2.939,0,0,1,1.009-1.249c1.253.005,3.007.012,3,1.893L24.7-2.777c-.015,3.133-.027,6.266-.291,9.147L24.19,59.136c-.007,1.5-.518,3.632-2.4,3.624A2,2,0,0,1,19.92,61L3.9-4.244c-.327,17.544.837,38.857.765,55.651-.018,4.388,1.081,11.285-2.3,11.27H2.116c-.626,0-1.129,0-1.5-1.134C.329,40.61-.27,4.387,0,0" fill="#fff"/>
    </g>
    <g id="Groupe_758" data-name="Groupe 758" transform="translate(2212.719 -164.615)">
      <path id="Tracé_11706" data-name="Tracé 11706" d="M0,0C.542-9.523.214-20.554,2.718-20.293a2.492,2.492,0,0,1,2,1.513L19.742,43.826l1.017-62.538a2.939,2.939,0,0,1,1.009-1.249c1.253.005,3.007.012,3,1.893L24.7-2.777c-.015,3.133-.027,6.266-.291,9.147L24.19,59.136c-.007,1.5-.518,3.632-2.4,3.624A2,2,0,0,1,19.92,61L3.9-4.244c-.327,17.544.837,38.857.765,55.651-.018,4.388,1.081,11.285-2.3,11.27H2.116c-.626,0-1.129,0-1.5-1.134C.329,40.61-.27,4.387,0,0Z" fill="none" stroke="#d2edfa" stroke-width="1.434"/>
    </g>
    <g id="Groupe_759" data-name="Groupe 759" transform="translate(2251.67 -164.05)">
      <path id="Tracé_11707" data-name="Tracé 11707" d="M0,0C.826-9.5.828-20.538,3.324-20.2c.626.021,1.853.816,1.952,1.571L18.422,44.394l2.887-62.476A2.937,2.937,0,0,1,22.354-19.3c1.252.043,3.007.1,2.942,1.981L24.774-2.038c-.107,3.131-.214,6.264-.564,9.136L22.41,59.83c-.052,1.5-.627,3.615-2.5,3.55a2,2,0,0,1-1.819-1.817L4.028-4.125C3.179,13.4,3.7,34.738,3.13,51.522,2.981,55.9,3.873,62.832.492,62.717L.24,62.709c-.626-.022-1.128-.039-1.465-1.179C-.885,40.6-.4,4.375,0,0" fill="#fff"/>
    </g>
    <g id="Groupe_760" data-name="Groupe 760" transform="translate(2251.67 -164.05)">
      <path id="Tracé_11708" data-name="Tracé 11708" d="M0,0C.826-9.5.828-20.538,3.324-20.2c.626.021,1.853.816,1.952,1.571L18.422,44.394l2.887-62.476A2.937,2.937,0,0,1,22.354-19.3c1.252.043,3.007.1,2.942,1.981L24.774-2.038c-.107,3.131-.214,6.264-.564,9.136L22.41,59.83c-.052,1.5-.627,3.615-2.5,3.55a2,2,0,0,1-1.819-1.817L4.028-4.125C3.179,13.4,3.7,34.738,3.13,51.522,2.981,55.9,3.873,62.832.492,62.717L.24,62.709c-.626-.022-1.128-.039-1.465-1.179C-.885,40.6-.4,4.375,0,0Z" fill="none" stroke="#d2edfa" stroke-width="1.434"/>
    </g>
    <g id="Groupe_761" data-name="Groupe 761" transform="translate(2289.432 -127.983)">
      <path id="Tracé_11709" data-name="Tracé 11709" d="M0,0C-1.021-24.169-.677-33.842-1.429-51.625A3.029,3.029,0,0,1,.443-54.84,135.393,135.393,0,0,1,14.42-56.559c2.38-.1,3.284.489,3.347,1.991.031.751-.418,2.025-1.419,2.067L3.618-50.959,3-50.683c.006.127.32,19.431.413,27.582.042,1,.363,5.63.406,6.631l.5-.02c1.116-.3,6.709-1.539,7.83-1.711l.376-.016c1.878-.079,3.256-.138,3.335,1.74.159,3.758-12.03,3.269-11.967,4.771L5.34,22.48l.4,3.5.5-.023c1-.041,11.018-3.475,12.521-3.538a1.882,1.882,0,0,1,2.093,2.044A2.118,2.118,0,0,1,19.2,26.913L7.427,30.3c-5.885.248-6.017-2.882-6.343-7.636C.929,19.029.143,3.381,0,0" fill="#fff"/>
    </g>
    <g id="Groupe_762" data-name="Groupe 762" transform="translate(2289.432 -127.983)">
      <path id="Tracé_11710" data-name="Tracé 11710" d="M0,0C-1.021-24.169-.677-33.842-1.429-51.625A3.029,3.029,0,0,1,.443-54.84,135.393,135.393,0,0,1,14.42-56.559c2.38-.1,3.284.489,3.347,1.991.031.751-.418,2.025-1.419,2.067L3.618-50.959,3-50.683c.006.127.32,19.431.413,27.582.042,1,.363,5.63.406,6.631l.5-.02c1.116-.3,6.709-1.539,7.83-1.711l.376-.016c1.878-.079,3.256-.138,3.335,1.74.159,3.758-12.03,3.269-11.967,4.771L5.34,22.48l.4,3.5.5-.023c1-.041,11.018-3.475,12.521-3.538a1.882,1.882,0,0,1,2.093,2.044A2.118,2.118,0,0,1,19.2,26.913L7.427,30.3c-5.885.248-6.017-2.882-6.343-7.636C.929,19.029.143,3.381,0,0Z" fill="none" stroke="#d2edfa" stroke-width="1.434"/>
    </g>
    <g id="Groupe_763" data-name="Groupe 763" transform="translate(2348.562 -103.001)">
      <path id="Tracé_11711" data-name="Tracé 11711" d="M0,0A14.2,14.2,0,0,0,4.291-1.287c7.339-3.1,12.832-7.873,14.877-15.476,2.311-8.351,3.17-19.115,3.354-27.637.241-11.154.311-31.84-18.487-32.246-.753-.016-1.632.092-2.384.075C.884-58.407.134-35.228-.12-23.447-.294-15.427.175-8.146,0,0M-2.682-79.172c.041-1.879,1.547-1.972,3.3-2.06,22.1-1.655,25.408,13.712,26.463,28.656C26.459-23.5,24.814-5.358,6.59,2.525c-.125,0-.253.119-.379.116C3.682,3.717,1.28,4.668-1.228,4.613-5.865,4.513-4.322-3.1-4.7-8.878c.233-10.778.709-38.726,2.016-70.294" fill="#fff"/>
    </g>
    <g id="Groupe_764" data-name="Groupe 764" transform="translate(2348.562 -103.001)">
      <path id="Tracé_11712" data-name="Tracé 11712" d="M0,0A14.2,14.2,0,0,0,4.291-1.287c7.339-3.1,12.832-7.873,14.877-15.476,2.311-8.351,3.17-19.115,3.354-27.637.241-11.154.311-31.84-18.487-32.246-.753-.016-1.632.092-2.384.075C.884-58.407.134-35.228-.12-23.447-.294-15.427.175-8.146,0,0ZM-2.682-79.172c.041-1.879,1.547-1.972,3.3-2.06,22.1-1.655,25.408,13.712,26.463,28.656C26.459-23.5,24.814-5.358,6.59,2.525c-.125,0-.253.119-.379.116C3.682,3.717,1.28,4.668-1.228,4.613-5.865,4.513-4.322-3.1-4.7-8.878-4.465-19.656-3.989-47.6-2.682-79.172Z" fill="none" stroke="#d2edfa" stroke-width="1.434"/>
    </g>
    <g id="Groupe_765" data-name="Groupe 765" transform="translate(2389.435 -127.906)">
      <path id="Tracé_11713" data-name="Tracé 11713" d="M0,0C-1.367-24.153-1.162-33.832-2.167-51.6A3.028,3.028,0,0,1-.341-54.844,135.187,135.187,0,0,1,13.61-56.765c2.378-.133,3.289.442,3.375,1.945.043.751-.387,2.03-1.39,2.086L2.887-51.01l-.611.286c.007.126.6,19.425.808,27.575.056,1,.443,5.623.5,6.626l.5-.029c1.112-.315,6.686-1.635,7.806-1.823l.375-.022c1.879-.106,3.255-.185,3.36,1.693.213,3.755-11.983,3.44-11.9,4.943L5.662,22.4l.449,3.49.5-.027c1-.058,10.968-3.635,12.47-3.72A1.883,1.883,0,0,1,21.2,24.16a2.118,2.118,0,0,1-1.618,2.476L7.861,30.187c-5.883.333-6.061-2.8-6.454-7.543C1.2,19.015.191,3.379,0,0" fill="#fff"/>
    </g>
    <g id="Groupe_766" data-name="Groupe 766" transform="translate(2389.435 -127.906)">
      <path id="Tracé_11714" data-name="Tracé 11714" d="M0,0C-1.367-24.153-1.162-33.832-2.167-51.6A3.028,3.028,0,0,1-.341-54.844,135.187,135.187,0,0,1,13.61-56.765c2.378-.133,3.289.442,3.375,1.945.043.751-.387,2.03-1.39,2.086L2.887-51.01l-.611.286c.007.126.6,19.425.808,27.575.056,1,.443,5.623.5,6.626l.5-.029c1.112-.315,6.686-1.635,7.806-1.823l.375-.022c1.879-.106,3.255-.185,3.36,1.693.213,3.755-11.983,3.44-11.9,4.943L5.662,22.4l.449,3.49.5-.027c1-.058,10.968-3.635,12.47-3.72A1.883,1.883,0,0,1,21.2,24.16a2.118,2.118,0,0,1-1.618,2.476L7.861,30.187c-5.883.333-6.061-2.8-6.454-7.543C1.2,19.015.191,3.379,0,0Z" fill="none" stroke="#d2edfa" stroke-width="1.434"/>
    </g>
    <g id="Groupe_767" data-name="Groupe 767" transform="translate(2423.038 -126.131)">
      <path id="Tracé_11715" data-name="Tracé 11715" d="M0,0C-1.512-17.1-2.985-36.6-4.731-56.33a2.067,2.067,0,0,1,1.957-2.06c.749-.066,1.113-.225,14.754-1.054a2.338,2.338,0,0,1,2.708,2.152,2.245,2.245,0,0,1-2.049,2.445c-3.122.277-6.389.314-8.637.514a22.978,22.978,0,0,0-4.223.624c.343,3.871,1.649,21.5,1.982,25.243l.221,2.5.283.353,9.863-.874c.873-.077,1.255,1.4,1.3,1.9.355,4-11.148,1.992-10.983,3.864.134,1.5.66,8.875.805,10.5C3.48-7.605,4.267-.125,4.312.374,4.544,3,7.1,20.511,7.257,20.874c.291,1.863-.327,3.427-2.074,3.582-1.248.111-1.837-.844-2.05-1.832C2.586,19.274.3,3.372,0,0" fill="#fff"/>
    </g>
    <g id="Groupe_768" data-name="Groupe 768" transform="translate(2423.038 -126.131)">
      <path id="Tracé_11716" data-name="Tracé 11716" d="M0,0C-1.512-17.1-2.985-36.6-4.731-56.33a2.067,2.067,0,0,1,1.957-2.06c.749-.066,1.113-.225,14.754-1.054a2.338,2.338,0,0,1,2.708,2.152,2.245,2.245,0,0,1-2.049,2.445c-3.122.277-6.389.314-8.637.514a22.978,22.978,0,0,0-4.223.624c.343,3.871,1.649,21.5,1.982,25.243l.221,2.5.283.353,9.863-.874c.873-.077,1.255,1.4,1.3,1.9.355,4-11.148,1.992-10.983,3.864.134,1.5.66,8.875.805,10.5C3.48-7.605,4.267-.125,4.312.374,4.544,3,7.1,20.511,7.257,20.874c.291,1.863-.327,3.427-2.074,3.582-1.248.111-1.837-.844-2.05-1.832C2.586,19.274.3,3.372,0,0Z" fill="none" stroke="#d2edfa" stroke-width="1.434"/>
    </g>
  </g>
</svg>
