<svg xmlns="http://www.w3.org/2000/svg" xmlns:xlink="http://www.w3.org/1999/xlink" width="99.145" height="99.145" viewBox="0 0 99.145 99.145">
  <defs>
    <linearGradient id="linear-gradient" x1="0.146" y1="0.854" x2="0.854" y2="0.146" gradientUnits="objectBoundingBox">
      <stop offset="0" stop-color="#ee2a7b"/>
      <stop offset="1" stop-color="#e91c39"/>
    </linearGradient>
    <linearGradient id="linear-gradient-2" y1="0.5" x2="1" y2="0.5" gradientUnits="objectBoundingBox">
      <stop offset="0" stop-color="#ff335a"/>
      <stop offset="0.999" stop-color="#ff4d9e"/>
    </linearGradient>
    <linearGradient id="linear-gradient-3" y1="0.5" x2="1" y2="0.5" gradientUnits="objectBoundingBox">
      <stop offset="0.001" stop-color="#ff4d9e"/>
      <stop offset="1" stop-color="#ff335a"/>
    </linearGradient>
  </defs>
  <g id="Groupe_1024" data-name="Groupe 1024" transform="translate(-33.693 -90.94)">
    <g id="Groupe_1023" data-name="Groupe 1023" transform="translate(26.325 83.573)">
      <circle id="Ellipse_743" data-name="Ellipse 743" cx="49.572" cy="49.572" r="49.572" transform="translate(7.368 7.368)" fill="url(#linear-gradient)"/>
      <g id="Groupe_1196" data-name="Groupe 1196">
        <path id="Tracé_12019" data-name="Tracé 12019" d="M128.676,121.258a49.519,49.519,0,0,0-7.77-13.02,50.76,50.76,0,0,0-9.062-7.929,61.616,61.616,0,0,0-9.687,2.2c-5.527,1.63-11.112,3.48-16.887,3.438-5.723-.041-11.233-1.936-16.685-3.625C64,100.9,59.233,99.619,54.46,99.678a50.767,50.767,0,0,0-8.636,7.073,49.714,49.714,0,0,0-6.315,8.813,22.383,22.383,0,0,1,15.469-.577c5.257,1.81,9.663,5.559,15,7.142,12.826,3.808,26.158-5.813,39.5-4.5,4.642.457,9.034,2.226,13.605,3.14A24.673,24.673,0,0,0,128.676,121.258Z" transform="translate(-25.781 -82.908)" fill="#db1d41"/>
        <path id="Tracé_12020" data-name="Tracé 12020" d="M111.085,99.258a58.76,58.76,0,0,0-9.429,2.2c-5.379,1.631-10.816,3.48-16.436,3.439-5.569-.041-10.932-1.936-16.239-3.626-4.464-1.421-9.1-2.705-13.748-2.646a49.83,49.83,0,0,0-15.283,16.18,21.336,21.336,0,0,1,15.787-.869c5.117,1.81,9.4,5.558,14.6,7.142,12.483,3.808,25.458-5.813,38.443-4.5,4.518.456,8.793,2.226,13.241,3.139a22.775,22.775,0,0,0,6.177.466A49.742,49.742,0,0,0,111.085,99.258Z" transform="translate(-25.763 -82.951)" fill="url(#linear-gradient-2)"/>
        <path id="Tracé_12021" data-name="Tracé 12021" d="M115.665,128.64c-7.486.683-14.476,3.813-21.481,6.5S79.691,140.148,72.25,139.1c-7.628-1.077-14.261-5.543-21.423-8.351-5.2-2.041-11.427-3.006-16.551-1.339a49.657,49.657,0,0,0-.313,16.724,27.754,27.754,0,0,1,15.792-1.637c5.391,1.134,10.228,4.109,15.587,5.38,16.879,4,34.352-9.488,51.18-5.279,3.78.945,7.356,2.768,11.238,3.109a11.291,11.291,0,0,0,4.019-.4,48.78,48.78,0,0,0,.417-14.459C127.706,129.4,121.453,128.111,115.665,128.64Z" transform="translate(-26.033 -81.717)" fill="#db1d41"/>
        <path id="Tracé_12022" data-name="Tracé 12022" d="M132.123,132.316c-4.459-3.78-10.929-5.175-16.882-4.625-7.388.683-14.287,3.814-21.2,6.5s-14.3,5-21.649,3.954c-7.529-1.077-14.076-5.544-21.144-8.352-5.3-2.1-11.672-3.073-16.816-1.181a49.482,49.482,0,0,0-.556,16.849,27.308,27.308,0,0,1,16.312-1.919c5.321,1.134,10.1,4.109,15.385,5.379,16.66,4,33.907-9.487,50.516-5.278,3.731.945,7.261,2.768,11.094,3.109a10.968,10.968,0,0,0,4.816-.67,49.144,49.144,0,0,0,.128-13.77Z" transform="translate(-26.033 -81.757)" fill="url(#linear-gradient-3)"/>
        <path id="Tracé_12023" data-name="Tracé 12023" d="M127.03,159.71a80.238,80.238,0,0,1-8.928-2.2c-4.607-1.33-9.317-2.635-14.108-2.444-6.095.244-11.823,2.885-17.823,3.981-8.5,1.554-17.223-.035-25.863-.177-6.876-.112-14.244.972-19.831,4.7a49.8,49.8,0,0,0,8.844,10.665,23.264,23.264,0,0,1,18.612,1.361c3.567,1.969,6.641,4.911,10.527,6.136,5.5,1.735,11.435-.308,16.685-2.693s10.613-5.2,16.378-5.048a25.491,25.491,0,0,1,4.2.527A49.746,49.746,0,0,0,127.03,159.71Z" transform="translate(-25.741 -80.623)" fill="#db1d41"/>
        <path id="Tracé_12024" data-name="Tracé 12024" d="M118.122,156.359c-4.607-1.33-9.317-2.635-14.108-2.444-6.095.244-11.823,2.885-17.823,3.982-8.5,1.553-17.223-.036-25.863-.178-7.085-.116-14.7,1.03-20.343,5.037a49.741,49.741,0,0,0,8.446,10.652,23.351,23.351,0,0,1,19.522,1.033c3.567,1.969,6.641,4.911,10.527,6.136,5.5,1.735,11.435-.307,16.685-2.692s10.613-5.2,16.378-5.049a29.788,29.788,0,0,1,5.256.738,49.682,49.682,0,0,0,10.787-14.914A75.644,75.644,0,0,1,118.122,156.359Z" transform="translate(-25.762 -80.67)" fill="url(#linear-gradient-2)"/>
        <path id="Tracé_12025" data-name="Tracé 12025" d="M94.483,123.581a29.791,29.791,0,0,1-30.739,1.8c-2.383-1.262-4.678-2.748-7.177-3.946a21.586,21.586,0,0,0-8.037-2.147,39.124,39.124,0,0,0-11.709,1.33q-.12.3-.236.6a44.858,44.858,0,0,1,11.855-.808,22.963,22.963,0,0,1,7.658,2.036c2.445,1.093,4.774,2.514,7.235,3.736a29.994,29.994,0,0,0,31.217-2.511Z" transform="translate(-25.902 -82.101)" fill="#ff335a"/>
        <path id="Tracé_12026" data-name="Tracé 12026" d="M123.617,154.891c-5.051-1.212-9.952-3.154-15.036-4.628a45.649,45.649,0,0,0-7.778-1.648,29.127,29.127,0,0,0-7.95.2A29.72,29.72,0,0,0,78.6,155.355l.071.086a29.405,29.405,0,0,1,14.266-6.072,28.493,28.493,0,0,1,7.778-.029,44.762,44.762,0,0,1,7.6,1.785c4.985,1.567,9.819,3.758,15.05,4.864,1.2.246,2.415.444,3.636.583.127-.31.249-.623.37-.936C126.108,155.45,124.852,155.2,123.617,154.891Z" transform="translate(-24.168 -80.896)" fill="#ff335a"/>
        <path id="Tracé_12027" data-name="Tracé 12027" d="M101.415,94.712c-3.1,1.683-5.872,3.811-9.138,4.86a22.629,22.629,0,0,1-20.139-3.1l-.069.089a22.423,22.423,0,0,0,9.722,4.418,22.685,22.685,0,0,0,10.759-.55c3.54-1.009,6.594-3.076,9.616-4.847.17-.1.345-.2.516-.3C102.266,95.086,101.84,94.9,101.415,94.712Z" transform="translate(-24.437 -83.113)" fill="#ff335a"/>
        <path id="Tracé_12028" data-name="Tracé 12028" d="M110.746,123.05c.119,1.6-1.791,3.037-4.266,3.222s-4.575-.961-4.694-2.556,1.792-3.038,4.266-3.222S110.628,121.455,110.746,123.05Z" transform="translate(-23.211 -82.05)" fill="#db1d41"/>
        <path id="Tracé_12029" data-name="Tracé 12029" d="M78.548,90.715a2.03,2.03,0,0,0-.488,1.019c-.238,1.583,1.557,3.165,4.01,3.535s4.636-.612,4.874-2.194a2.5,2.5,0,0,0-.963-2.188c-1.6-.155-3.212-.239-4.85-.239Q79.831,90.648,78.548,90.715Z" transform="translate(-24.191 -83.281)" fill="#db1d41"/>
        <path id="Tracé_12030" data-name="Tracé 12030" d="M51.471,151.69c-.251,1.27-2.052,1.984-4.021,1.593s-3.362-1.737-3.111-3.007,2.052-1.983,4.022-1.593S51.723,150.42,51.471,151.69Z" transform="translate(-25.583 -80.89)" fill="#db1d41"/>
        <path id="Tracé_12031" data-name="Tracé 12031" d="M68.776,180.24c-2.815-.558-5.377.373-6.006,2.086a49.264,49.264,0,0,0,10.548,3.046,2.367,2.367,0,0,0,.2-.548C73.9,182.887,71.779,180.835,68.776,180.24Z" transform="translate(-24.821 -79.59)" fill="#db1d41"/>
        <path id="Tracé_12032" data-name="Tracé 12032" d="M96.419,179.98A49.57,49.57,0,0,1,61.283,95.44a49.575,49.575,0,1,0,56.824,79.55A49.363,49.363,0,0,1,96.419,179.98Z" transform="translate(-26.033 -83.083)" fill="#bf1941" opacity="0.35"/>
      </g>
    </g>
  </g>
</svg>
