<svg xmlns="http://www.w3.org/2000/svg" xmlns:xlink="http://www.w3.org/1999/xlink" width="98.2" height="98.2" viewBox="0 0 98.2 98.2">
  <defs>
    <linearGradient id="linear-gradient" y1="0.5" x2="1" y2="0.5" gradientUnits="objectBoundingBox">
      <stop offset="0.001" stop-color="#f7751d"/>
      <stop offset="1" stop-color="#fbdb40"/>
    </linearGradient>
    <linearGradient id="linear-gradient-2" y1="0.5" x2="1" y2="0.5" gradientUnits="objectBoundingBox">
      <stop offset="0" stop-color="#ffcf06"/>
      <stop offset="0.999" stop-color="#ea6307"/>
    </linearGradient>
    <linearGradient id="linear-gradient-4" x1="0.252" y1="-0.068" x2="0.801" y2="0.689" gradientUnits="objectBoundingBox">
      <stop offset="0.18" stop-color="#ea6307"/>
      <stop offset="1" stop-color="#ffcf06"/>
    </linearGradient>
    <linearGradient id="linear-gradient-5" y1="0.5" x2="1" y2="0.5" gradientUnits="objectBoundingBox">
      <stop offset="0.001" stop-color="#ea6307"/>
      <stop offset="1" stop-color="#ffcf06"/>
    </linearGradient>
    <linearGradient id="linear-gradient-6" x1="0.28" y1="0.748" x2="0.876" y2="0.144" xlink:href="#linear-gradient-5"/>
  </defs>
  <g id="Groupe_1027" data-name="Groupe 1027" transform="translate(-354.08 -86.129)">
    <g id="Groupe_1026" data-name="Groupe 1026" transform="translate(354.08 86.129)">
      <g id="Groupe_1025" data-name="Groupe 1025" transform="translate(0)">
        <circle id="Ellipse_744" data-name="Ellipse 744" cx="49.1" cy="49.1" r="49.1" fill="url(#linear-gradient)"/>
      </g>
      <path id="Tracé_12033" data-name="Tracé 12033" d="M397.252,143.986c-4.07-1.358-8.96-.333-12.409-2.886-4.8-3.556-3.345-10.917-4.578-16.763-1.865-8.826-10.187-13.405-18.242-12.954a48.979,48.979,0,0,0-6.2,12.349,49.092,49.092,0,0,0,.708,28.281,15.608,15.608,0,0,0,5.552,4.931c2.741,1.166,5.891.206,8.854.512,5.983.619,10.083,6.065,13.829,10.771s9.091,9.534,14.963,8.238c3.752-.829,6.61-4.146,7.72-7.825s.709-7.654-.215-11.384C405.845,151.646,402.737,145.816,397.252,143.986Z" transform="translate(-354.08 -87.594)" opacity="0.5" fill="url(#linear-gradient-2)"/>
      <path id="Tracé_12034" data-name="Tracé 12034" d="M445.74,107.453q-.955-1.283-1.981-2.508a18.489,18.489,0,0,0-3.919-1.733c-4.028-1.2-8.475-.686-12.357-2.291-4.046-1.673-6.852-5.375-9.227-9.053-1.019-1.578-2.019-3.2-3.1-4.742a49.288,49.288,0,0,0-25.315,1.486,11.558,11.558,0,0,1,2.365,2.56c2.338,3.635,2.241,8.245,2.544,12.556s1.419,9.1,5.09,11.384c4.708,2.924,11.17.251,16.24,2.49,3.481,1.538,5.6,5.072,8.621,7.393,5.076,3.905,12.022,3.981,18.425,3.885l10.791-.161A48.8,48.8,0,0,0,445.74,107.453Z" transform="translate(-356.157 -86.129)" opacity="0.5" fill="url(#linear-gradient-2)"/>
      <path id="Tracé_12035" data-name="Tracé 12035" d="M437.115,147.107c-3.355-.47-6.37-2.763-9.756-2.636-4.137.156-7.394,4.123-7.907,8.231s1.135,8.2,3.295,11.728,4.857,6.73,6.793,10.388c.833,1.572,1.11,4.063,1.528,6.417a49.294,49.294,0,0,0,19.6-20.39,48.875,48.875,0,0,0,4.366-19.056C449.1,142.609,443.309,147.977,437.115,147.107Z" transform="translate(-357.871 -89.361)" opacity="0.5" fill="url(#linear-gradient-4)"/>
      <path id="Tracé_12036" data-name="Tracé 12036" d="M443.026,103.668a16.67,16.67,0,0,0-3.545-1.568c-3.643-1.081-7.666-.62-11.178-2.072-3.66-1.513-6.2-4.862-8.347-8.189-.922-1.427-1.827-2.892-2.806-4.29a49.166,49.166,0,0,0-24.431.25,11.912,11.912,0,0,1,3.67,3.411c2.115,3.288,2.027,7.458,2.3,11.359s1.283,8.235,4.6,10.3c4.259,2.644,10.1.226,14.691,2.251,3.15,1.391,5.069,4.589,7.8,6.689,4.591,3.532,10.875,3.6,16.666,3.514l11.035-.164A48.916,48.916,0,0,0,443.026,103.668Z" transform="translate(-356.324 -86.129)" fill="url(#linear-gradient-5)"/>
      <path id="Tracé_12037" data-name="Tracé 12037" d="M398.062,141.164c-4.071-1.358-8.961-.332-12.409-2.886-4.8-3.556-3.346-10.917-4.579-16.763-1.864-8.825-10.187-13.4-18.241-12.954a48.859,48.859,0,0,0-8.753,27.97,49.364,49.364,0,0,0,.884,9.264c2.425,3.833,5.2,7.167,7.927,8.329s5.892.206,8.855.512c5.983.619,10.082,6.065,13.829,10.771s9.09,9.534,14.963,8.238c3.752-.829,6.609-4.146,7.719-7.825s.709-7.654-.214-11.384C406.655,148.823,403.546,142.994,398.062,141.164Z" transform="translate(-354.08 -87.43)" fill="url(#linear-gradient-6)"/>
      <path id="Tracé_12038" data-name="Tracé 12038" d="M456.1,139.537c-5.931.819-11.722,6.188-17.916,5.318-3.355-.47-6.37-2.764-9.756-2.636-4.137.156-7.394,4.123-7.907,8.231s1.135,8.2,3.295,11.728,4.857,6.729,6.794,10.388c1,1.885,1.194,5.1,1.8,7.8A49.062,49.062,0,0,0,456.1,139.537Z" transform="translate(-357.933 -89.23)" fill="url(#linear-gradient-5)"/>
      <path id="Tracé_12039" data-name="Tracé 12039" d="M386.513,103.683c.355,1.4-1.146,2.989-3.353,3.549s-4.284-.122-4.639-1.523,1.146-2.989,3.353-3.548S386.158,102.282,386.513,103.683Z" transform="translate(-355.496 -87.048)" fill="#ea6307" opacity="0.4"/>
      <path id="Tracé_12040" data-name="Tracé 12040" d="M443.11,157.131c.355,1.4-1.146,2.99-3.353,3.549s-4.284-.122-4.639-1.523,1.146-2.989,3.353-3.548S442.755,155.731,443.11,157.131Z" transform="translate(-358.783 -90.152)" fill="#ea6307" opacity="0.4"/>
      <path id="Tracé_12041" data-name="Tracé 12041" d="M407.614,135.362c-.582-1.549.925-3.547,3.366-4.464s4.89-.4,5.472,1.144-.925,3.547-3.365,4.464S408.2,136.91,407.614,135.362Z" transform="translate(-357.182 -88.702)" fill="#ea6307" opacity="0.4"/>
      <path id="Tracé_12042" data-name="Tracé 12042" d="M373.444,171.3c.225-.933,1.6-1.4,3.069-1.048s2.48,1.4,2.255,2.329-1.6,1.4-3.068,1.048S373.22,172.237,373.444,171.3Z" transform="translate(-355.203 -91.008)" fill="#ea6307" opacity="0.4"/>
      <path id="Tracé_12043" data-name="Tracé 12043" d="M364.074,127.474c-.284-.916.657-2.022,2.1-2.47s2.846-.068,3.129.849-.656,2.022-2.1,2.47S364.358,128.391,364.074,127.474Z" transform="translate(-354.657 -88.376)" fill="#ea6307" opacity="0.4"/>
      <path id="Tracé_12044" data-name="Tracé 12044" d="M395.4,160.913c.772-1.221,2.959-1.224,4.882-.006s2.857,3.2,2.085,4.415-2.959,1.224-4.883.006S394.624,162.133,395.4,160.913Z" transform="translate(-356.464 -90.419)" fill="#ea6307" opacity="0.4"/>
      <path id="Tracé_12045" data-name="Tracé 12045" d="M429.4,107.206c.773-1.221,2.959-1.224,4.883-.006s2.857,3.2,2.084,4.416-2.959,1.223-4.882,0S428.623,108.427,429.4,107.206Z" transform="translate(-358.438 -87.3)" fill="#ea6307" opacity="0.4"/>
      <path id="Tracé_12046" data-name="Tracé 12046" d="M411.505,175.936a49.086,49.086,0,0,1-40.121-77.385A49.09,49.09,0,1,0,443.3,164.235,48.89,48.89,0,0,1,411.505,175.936Z" transform="translate(-354.08 -86.85)" fill="#db5e09" opacity="0.4"/>
    </g>
  </g>
</svg>
